<mxfile host="drawio-plugin" modified="2022-12-12T22:52:37.065Z" agent="5.0 (Windows NT 6.2; Win64; x64) AppleWebKit/537.36 (KHTML, like Gecko) Chrome/87.0.4280.141 Safari/537.36" etag="WEtNhY3rujG76Bdy4nQ8" version="13.7.9" type="embed"><diagram id="fqDff2OOT4ordfgiPYyi" name="Page-1"><mxGraphModel dx="488" dy="380" grid="0" gridSize="9" guides="1" tooltips="1" connect="1" arrows="1" fold="1" page="1" pageScale="1" pageWidth="850" pageHeight="300" math="0" shadow="0"><root><mxCell id="0"/><mxCell id="1" parent="0"/><mxCell id="188" value="" style="shape=image;verticalLabelPosition=bottom;labelBackgroundColor=#ffffff;verticalAlign=top;aspect=fixed;imageAspect=0;image=data:image/png,iVBORw0KGgoAAAANSUhEUgAAAEAAAAAoCAYAAABOzvzpAAAAAXNSR0IArs4c6QAAAF1JREFUaEPt1QERADAMArHi33SFfOagHBm7+Fv8/hOABsQTQCBeAJ8gAgjEE0AgXgArgAAC8QQQiBfACiCAQDwBBOIFsAIIIBBPAIF4AawAAgjEE0AgXgArgECdwANfiQApEtGAKwAAAABJRU5ErkJggg==;" parent="1" vertex="1"><mxGeometry x="384" width="64" height="40" as="geometry"/></mxCell><mxCell id="189" value="" style="shape=image;verticalLabelPosition=bottom;labelBackgroundColor=#ffffff;verticalAlign=top;aspect=fixed;imageAspect=0;image=data:image/png,iVBORw0KGgoAAAANSUhEUgAAAEAAAAAoCAYAAABOzvzpAAAAAXNSR0IArs4c6QAAAF1JREFUaEPt1QERADAMArHi33SFfOagHBm7+Fv8/hOABsQTQCBeAJ8gAgjEE0AgXgArgAAC8QQQiBfACiCAQDwBBOIFsAIIIBBPAIF4AawAAgjEE0AgXgArgECdwANfiQApEtGAKwAAAABJRU5ErkJggg==;" parent="1" vertex="1"><mxGeometry x="448" width="64" height="40" as="geometry"/></mxCell><mxCell id="190" value="" style="shape=image;verticalLabelPosition=bottom;labelBackgroundColor=#ffffff;verticalAlign=top;aspect=fixed;imageAspect=0;image=data:image/png,iVBORw0KGgoAAAANSUhEUgAAAEAAAAAoCAYAAABOzvzpAAAAAXNSR0IArs4c6QAAAF1JREFUaEPt1QERADAMArHi33SFfOagHBm7+Fv8/hOABsQTQCBeAJ8gAgjEE0AgXgArgAAC8QQQiBfACiCAQDwBBOIFsAIIIBBPAIF4AawAAgjEE0AgXgArgECdwANfiQApEtGAKwAAAABJRU5ErkJggg==;" parent="1" vertex="1"><mxGeometry x="512" width="64" height="40" as="geometry"/></mxCell><mxCell id="191" value="" style="shape=image;verticalLabelPosition=bottom;labelBackgroundColor=#ffffff;verticalAlign=top;aspect=fixed;imageAspect=0;image=data:image/png,iVBORw0KGgoAAAANSUhEUgAAAEAAAAAoCAYAAABOzvzpAAAAAXNSR0IArs4c6QAAAoVJREFUaIHtmL+LGkEUx7/mLKMgadIuAe8aueBoig1qFdDCLoftwZILaSzzLwSSzu4E4aoDSXmFwlXewTZ3exCuMTbbppEDL2XCpjAz2d+6cd94cPMB2XGd3Zl58+a97xNQKBSPmYzMwVi55qzTz7q5lDavrKyBWLnmVLU2AODZnraquyPLCFIG8S9+POpF9m22ugCA8agnxROkeQBnPOrh2rqI/L3C6sIIMngibSQfFVZHhdUDbdlszQAPBelHoNnqosLqnmPA27LdH9iyB3x4+8Vz3QapR9l9TUe2sCPyvXVzmUmYAgH8ywJu7fDr7nfmm22mOt/UPSBb2HGara5w5X1N3/id/H1uw6YF2RHguZ5P+so+AwDMpzbmUzv0GX5/PrVR1dpCOcbphk0hC4L/E8z48eDX5h59QCRRWutq/qRQKENyqRlnjIFeDNwzzJnnO7UclpIG+50GgGW+5zl/oBeRL+UCn6/vmecZaqQKoSi5+3T3OQDg5/cf4p7GNGA4IZ+TVCHEd//auoBhzrC4vQewXDhf/MGxhfPPh6HPv3yxeUr1Q+oB7vPf7zQ8xU+/04AxnAA+XRO1eCrIAgwr1xwe5AxzFjjTGotXhG8+nog2ZSAkS4M8mAHA4vY+EN1XMdCLMMyZuFIZQVoQDEt5ceRLucDxoIDMAAfHlmi7F58v5UL7AIDbazhJPScpZAZwBzP3eXbv6vnpa9Eu7H4KTZP9TgNHhOmQNAjydlgpHFYQ+UtlXgRRBkEyD+CT9kvh2Mrur03chRS1FJYSBK/sM1S1ttj1qEXxP06iymUKpBhgqQEWOBpOVu7ou1cLAFirbxpIrQZXLShJX4VCoVAoFIpN+QPC2PGUv0ZNeQAAAABJRU5ErkJggg==;" parent="1" vertex="1"><mxGeometry width="64" height="40" as="geometry"/></mxCell><mxCell id="192" value="" style="shape=image;verticalLabelPosition=bottom;labelBackgroundColor=#ffffff;verticalAlign=top;aspect=fixed;imageAspect=0;image=data:image/png,iVBORw0KGgoAAAANSUhEUgAAAEAAAAAoCAYAAABOzvzpAAAAAXNSR0IArs4c6QAAAmNJREFUaIHtl7+LGkEUx7/mLKMgadJu410jB47XbFCrgBbX5bANLFxIY5l/IZB0dicIqQKSMoXCVd7BNrk9CNcYm23TSMBLmbApZCaz7rq6cd8zIfMB2XF9uzPv+X4CBoPB8B+T49xMVOvBNnLe7TXbufJcG4lqPTixTgEAj46sTeIBlxFYNllVfjzqrZVttbsAgPGox+IJbB4gGY96uPGu1v5eEw1lBA4esO20Qk00UBONyJqbvRngb4E9BFrtLmqiEQoDueZ2f2DPHvDy2dvQdR9knmWPLRv50oGq997tdS5lCQTwuwrovcOPbz9zn3030/Nm7gH50kHQaneVKx9b9s7vlO/TDZsVZCEga7089Cf/IwBgPvUxn/qxz8j786mPE+tUdY5JfcOukCXBP0lmMjzktXVEnxBJOq1te/60UHSG5K1mkjEGdjlyz3Fnoe/U7TBLGex3mgCW9V7W/IFdRrFSiHw+vBChZ6hhbYTWtbsPDx8DAL5/+aruWcIChhPyM7E2QvLfv/Gu4LgzLO7uASwVl8qfXXi4fPOc7UykHqDHf7/TDA0//U4TznACrPQ1nMoDhElQVOuBTHKOO4vEtCWSO8Knr96pNWUiJCuDMpkBwOLuPpLdNzGwy3DcmbpSGYEtCcaVvCSKlUIkPCggM8DZhafWuvLFSiFWBgB0r5Gk9Zy0kBlAT2Z6POv/6uX7J2pdOnwdWyb7nSbOCcshaRKU67hROG4gWh2V5RD0zyVBHWkIaQQ5FSahy1K3wixJcFkCFzgfThIVEtV6sK1sVrAOQ5sUSiNrMBgMBoPBsCu/AGAN5g3nXm5WAAAAAElFTkSuQmCC;" parent="1" vertex="1"><mxGeometry x="64" width="64" height="40" as="geometry"/></mxCell><mxCell id="193" value="" style="shape=image;verticalLabelPosition=bottom;labelBackgroundColor=#ffffff;verticalAlign=top;aspect=fixed;imageAspect=0;image=data:image/png,iVBORw0KGgoAAAANSUhEUgAAAEAAAAAoCAYAAABOzvzpAAAAAXNSR0IArs4c6QAAAjlJREFUaIHtmL9LAmEYx7+lq4K0td3Qj0UEX10MdQpsaDNcg4OixbGhfyCozSUShKYgGhsUnCq4pQzCxVxudZGgHItret/eu9PU9HlNej/LvafP6/vec8+P7yug0Wg0Gs2/ZUHlYiyedkaxazzdK9tXUNVCLJ52ksY2AGBp3Rhm7qhygpJFvA9fq5YG2ua2igCAWrWkJBKURQCnVi3hsXE38PsEywgnqGBR2UoeEiyDBMv4xqqZmQP+CspTILdVRIJlXGnAx6rDH5hxBBzkT13XWTD1Kiv3+o/Xz4Vn2xq3BQL47gIxI4VgJCB+c9qdgSQFpFbmxJCaaMPBSMCRW+O0IUsBvln+9h7sGwBAt2Wj27L7zuGfd1s2ksa2iCaKB+eQFcHfFDOeHvyaW6cviCRKa1TNPy4UypBcasrOkNtdJbU6cI5ptcWYWg4raYPlQhaAX/GFoyGEoyEs51ewnF8R9/IcapTqAB4Bj407mFYbb813AEDvpYPeSwcAsHPeQP1kFwYbrV1OCqkSlMO/XMi6tH+5kIV5dQtY7jn1k13KLfkgyy8WTzs8z02r7QvpYW948/BCjCnrAFkXuN5n4v6t+e4qbKNQSa3CtNriSuUEZYehflXf6xTZJhwN+dKDgpnqgPrlhhhH1o5//E+AKgLIHCAXs6OzLgD3QaifHPYelGrVEsqFLPaubufLAYA/CvhpkJ8JfsJrO3dFUIbF0w7vAMPe5Di200KpFB72QOPYajQajUaj0UzKF3mE3uICq6TZAAAAAElFTkSuQmCC;" parent="1" vertex="1"><mxGeometry x="128" width="64" height="40" as="geometry"/></mxCell><mxCell id="194" value="" style="shape=image;verticalLabelPosition=bottom;labelBackgroundColor=#ffffff;verticalAlign=top;aspect=fixed;imageAspect=0;image=data:image/png,iVBORw0KGgoAAAANSUhEUgAAAEAAAAAoCAYAAABOzvzpAAAAAXNSR0IArs4c6QAAAlRJREFUaIHtmL9r20AUx7+tPdYGk6WrFieLKeicDi6yp4I8ZEvwGjBN6eKxQ/+BQLppKTEYOhVCxwwSeEoKWhJ1yeJ60drFFJyMLepgTj3JVq3gvOea3me5s/Tu1/P7dQI0Go1G8//yiHMxYVpRHrng6xe2fRW5FhKmFe0aewCArR1jmXjEpQSWRdKH91wnU9Zu9wAAnuuwWAKbBUg818F1cJn5vi6asRI4eMy2Uoq6aKIumnN9btamgH8Fdhew2z3URTPhBrLPbf7Ami3gzf77RLsO1pIF8rCxWUAtdn7++LXyAZ4ZDRQrhXjOh1YKiQvY7R7sdg/FSiGSm78KzwEAk1GIyShcOE4+n4xC7Bp7EKYVFSuFSM5HAVkQ9Fzn3puW7iFbe+dPUbRxClArulXnocwMJEEm69KjprtBo5o5vuuPFz6nCIokFqBuVJhW1O+0cHR2MVftlWslAMCT7acAgLtv32cvfECOoc4ErHWAtIDr4BJdf4zpzS2A2cHl4Q9OAwxPDmGIfOlyVUgrQdUV+p1Wovbvd1ronl0AfnLM8OSQcktzkJmXMK1o0KiiXCvh4DRAv9NKvF/2D798+zHuU7oBWRD8/FrEv6c3t5mBLYtBo4quP45bKiWwXYYWRf20UlSZcq005x4UsKbBNMNPL+J+Zfv4r98EqCyATAFqMHv3YQIgeRFaVA6nL0qe65CnQ9IgKPt5vwdK0lXkxgVBFakIqYSr8DzzQOq1eZnsQ8ESBGcpcJrLlF89nwIASxUIMFoAsNyU7yOr0Wg0Go1Gsyq/Af2S80svlex4AAAAAElFTkSuQmCC;" parent="1" vertex="1"><mxGeometry x="256" width="64" height="40" as="geometry"/></mxCell><mxCell id="195" value="" style="shape=image;verticalLabelPosition=bottom;labelBackgroundColor=#ffffff;verticalAlign=top;aspect=fixed;imageAspect=0;image=data:image/png,iVBORw0KGgoAAAANSUhEUgAAAEAAAAAoCAYAAABOzvzpAAAAAXNSR0IArs4c6QAAAnRJREFUaIHtmL9v00AUx7/FHWmjioXVQkq7VEK+hCHIyYTkDNmIsiJZgFgy8i8gwZYtkSIxIUWMHRKpU4rkpTVLl5DFK0sGUtZihnDHObHTROG9ULjP4sv5fr3nd+9HAIPB8D+zw7mZcNx4lXHh509s59rl2kg4bly0awCAe0f2TcNjLiWwbDIv/KDfyhzrVZsAgEG/xWIJbBYgGfRbuAjPMt8XRFkpgYM7bDvNURBlFER5oc3N1hTwt8B+BbxqEwVRTlwD2eY2f2DLFvDq6bvEcxtsJQqswq2NAnqyc/3teif+sdl6Dx+UYOUsteafVgrJFfCqTXjVJqycFe8ezA5/Hp0AACajCJNRlDpP9k9GEYp2DcJxYytnxXI9Csic4KDfWvvQ8nrIp3f0Oym6dQrQM7pN16GMDCROZtWip1vKL/T5wThzPIVTJPeywnHjTqOCF71hIt53S3nsH++lzqm3Q8g51JGANRHKSnfvHt4HAHz/8lX12cIGekPyM7EmQtICLsIz+MEY08srADPBpfD1dojTt8/YzkRqAbov6DQqieKn06jA7w2BIDmHU3iA0AcIx42lk/ODMTqNSuK9LZZnhE9ev1dtSj9AFgU+vhTq9/Tyaql3T6NbysMPxupJpQQ2J5gW8paxf7y3cD0oIFNAvR2qti68Hvr0MQCgW41kXctZFzIF6M5Mv8/6Vz398Fi1Dw7fpIZJmQ9QQeoEZTutFE4riOZLZZlGUzpBMguQh55Pi5fWBr90ouf+/0QmeB6doGjX1FfPEkr+cZJVLlPAooBZDjBdKbd//mgKACx1AMBUDMn2TQKtM9ZgMBgMBoNhU34C1yj3Qk8g9NQAAAAASUVORK5CYII=;" parent="1" vertex="1"><mxGeometry x="192" width="64" height="40" as="geometry"/></mxCell><mxCell id="196" value="" style="shape=image;verticalLabelPosition=bottom;labelBackgroundColor=#ffffff;verticalAlign=top;aspect=fixed;imageAspect=0;image=data:image/png,iVBORw0KGgoAAAANSUhEUgAAAEAAAAAoCAYAAABOzvzpAAAAAXNSR0IArs4c6QAAAF1JREFUaEPt1QERADAMArHi33SFfOagHBm7+Fv8/hOABsQTQCBeAJ8gAgjEE0AgXgArgAAC8QQQiBfACiCAQDwBBOIFsAIIIBBPAIF4AawAAgjEE0AgXgArgECdwANfiQApEtGAKwAAAABJRU5ErkJggg==;" parent="1" vertex="1"><mxGeometry x="320" width="64" height="40" as="geometry"/></mxCell><mxCell id="197" value="" style="shape=image;verticalLabelPosition=bottom;labelBackgroundColor=#ffffff;verticalAlign=top;aspect=fixed;imageAspect=0;image=data:image/png,iVBORw0KGgoAAAANSUhEUgAAAEAAAAAoCAYAAABOzvzpAAAAAXNSR0IArs4c6QAAAF1JREFUaEPt1QERADAMArHi33SFfOagHBm7+Fv8/hOABsQTQCBeAJ8gAgjEE0AgXgArgAAC8QQQiBfACiCAQDwBBOIFsAIIIBBPAIF4AawAAgjEE0AgXgArgECdwANfiQApEtGAKwAAAABJRU5ErkJggg==;" parent="1" vertex="1"><mxGeometry x="384" width="64" height="40" as="geometry"/></mxCell><mxCell id="198" value="" style="shape=image;verticalLabelPosition=bottom;labelBackgroundColor=#ffffff;verticalAlign=top;aspect=fixed;imageAspect=0;image=data:image/png,iVBORw0KGgoAAAANSUhEUgAAAEAAAAAoCAYAAABOzvzpAAAAAXNSR0IArs4c6QAAAF1JREFUaEPt1QERADAMArHi33SFfOagHBm7+Fv8/hOABsQTQCBeAJ8gAgjEE0AgXgArgAAC8QQQiBfACiCAQDwBBOIFsAIIIBBPAIF4AawAAgjEE0AgXgArgECdwANfiQApEtGAKwAAAABJRU5ErkJggg==;" parent="1" vertex="1"><mxGeometry x="448" width="64" height="40" as="geometry"/></mxCell><mxCell id="200" value="" style="shape=image;verticalLabelPosition=bottom;labelBackgroundColor=#ffffff;verticalAlign=top;aspect=fixed;imageAspect=0;image=data:image/png,iVBORw0KGgoAAAANSUhEUgAAAEAAAAAoCAYAAABOzvzpAAAAAXNSR0IArs4c6QAAAmlJREFUaIHtmL9v2kAUx7/UGQso6tLVqkSyIFU+6EBlmCKZga2INZLVRF0Y8y9USjc2kJAyVUIZO2CJiVTy0rhSlYWyeO3CUNI1vQ70XBvsxoS+o2nvs/g47t2Pp/frDlD832RkLsYMk6cZ5318L21fO7IWYobJy3oDAPBoX79tOJelBCmLLB/eGXYSx1r1NgDAGXakWII0CxA4ww4uvYvE/0usGihBBg+krbREiVVRYtWVtmy2poC/BekuYNXbKLFqxA1EW7b5A1u2gFcv3kS+22ArWSAN9zYLhIudm683Gf59s/mePqlAy2vBnH9aKSQuYNXbsOptaHmN7+wuNv/BfwcAmE18zCZ+rJzon018lPUGmGFyLa9xMR8FZEHQGXbW3rRwD/G19n8VRfdOAeGKbtN5KDMDSZBJe+npVworfbY7TRxPERTJoywzTN5r1XA0GEfyfb9SQK6YjZVpdj0IGepMILUQSip3H+49BgB8+/wl6NOZDgzG5HuSWggJC7j0LmC7U8yvrgEsDi4O3+x6GJ0eStsTqQUwwwzavVYtcvnptWqwB2PAjcrIPDxAGAN+Hp6fH7PAp8Po7PcV4cHJGQD61yFKBfDzYxb8bna9teT7lQJsd/pvBcHR6SEOTs5i098yuWJ2xT0oIFXA/Oo6MdXlitkVq9jEYu4KpQIytjvlfSQUOy4wevs86Nvdex1Jk6Hqj/SBlNS/4ipCcbC4C1HcVZn6WkweA8Q7AHD7izBCOinrjdRvB5tAroCXz+YAgKPBGPDTpTVmmHwh9wkO8f6kucA6ZixqiLvIKhQKhUKhUCgUilT8AFYg5F+28UDtAAAAAElFTkSuQmCC;" parent="1" vertex="1"><mxGeometry y="40" width="64" height="40" as="geometry"/></mxCell><mxCell id="201" value="" style="shape=image;verticalLabelPosition=bottom;labelBackgroundColor=#ffffff;verticalAlign=top;aspect=fixed;imageAspect=0;image=data:image/png,iVBORw0KGgoAAAANSUhEUgAAAEAAAAAoCAYAAABOzvzpAAAAAXNSR0IArs4c6QAAAqBJREFUaIHtmb9rIkEUx7+eKe8SQpprhwNjEwiONh5qFdDCLodtQDCkscy/cJB0dicIqQ4kZQoFKyPYJGuTJpdm2zQp8qNNJsVm1tl1jK6ZmRMyH5Cd1dm3+968X7MCFovF8omJmboRTeVYlPnOaGDk2b6YuAlN5ViGlJEh5bnmF0v1yAZblBXdN+DKA8CFe4ZL53zmNWmaR7FUBwCm2xO0G0BGmub98aVzPnFuEiMhsMwY9YBiqY40zU+ssnguuL8R/psHHOwe42D3eGJsGuUJhmfv5/vnGHsBVtbjfhLcSJJIsrqdBpzRILb9I4v4WpwB6sujUmE0lWPcfbudRuA3sQS+Z4i7axcbSYK7axeAVzkAQJSr0ghackC301g4jrlx+LGYHCuuIzdoMcA0L/iIPF2JUXkIzDu3lU1M/a06vHn3WpUhoLwKhFveZqUAwCt1vNy1sgmsbn2b+jndp4FrZXJVoTQE3lZG6gVityfydfN74Pzp360/JpQA7T6AcTJUXQWU5wDxAcWQ4C0vP7bgeYGoMOfXHwe9oz2ZeOVl20gn2KwUfA9I0zyalQKq7T4wlM8PK9+sFEAowc7hCYNiI2gzQDghhpXq0dlNket4vUCt3Z9r/iLo6AQBgJ3uUzxcPaI6vAkksyjU3uK/lU34lWGpO0HAW3mexQH4RlgEUXEAMWc0+PgDhlDeB/SO9rBzeAJgrICs5k8zijhX16qLaMkBPN65IWTK9v7+nPhuffN3oFwK3Z+2N0OqPQAI9QGynSDf6MiQbZRUb4BEVDdCgGBUWWs8c38g2CZDypG30FEx0gdwJeZdSZrKMa9yPKDW1rf6gAEDXLhnyCB6D89LoO63wlqFj1fSU8jUnx1R0G4APl5G5S0Wi8VisXxuXgFXNAyVLP2QBQAAAABJRU5ErkJggg==;" parent="1" vertex="1"><mxGeometry y="80" width="64" height="40" as="geometry"/></mxCell><mxCell id="202" value="" style="shape=image;verticalLabelPosition=bottom;labelBackgroundColor=#ffffff;verticalAlign=top;aspect=fixed;imageAspect=0;image=data:image/png,iVBORw0KGgoAAAANSUhEUgAAAEAAAAAoCAYAAABOzvzpAAAAAXNSR0IArs4c6QAAArJJREFUaIHtmL1r20AYxp80Xe1SumUTJW4WQ9HZi4vsqeAM3hy8GgQxXTL2Xyi4m7cYDJ0KxmMGGzw5AS2JAqWLo0VrFi9tdnVQTr07ya7d6j0Ivd+i08eddI/eez8OMBj+a/Z0vozZTrTNc/7tlbbveq7rRcx2oqrVwqsja5vHI10iaBGAT/46vADCPz/fPD4DNImgzQIAoGq1AGBbK9CCVgGAePKz6WDt/ce/rw3tAsymA9z4l2vvV1hdqwjPtL1JocLqqLB6qq0bEgsQw92/OrI8x8oidwGY7UTchFfLEACk2N88PkOF1aVlwNuq+WeEztwjA8kSmE0HiaPjnj+LD+3P0lGF9xXHy5vcTUq0APGjdw2BYl9xvCdhAQBSf+w6vAAQL4vHpZGCX18tQ8lyqP4+QBgG/yaUcevgx+YRfTgkSTW3LXp2hSIKkOfaohiitx/VSmv7uF6QtKnrATIfwGwn4pMfdhoA0glPsVxAsVzAQfsQB+3D5FzsQ2VNnNwF4BOf9BgmPSbd4xZw41/C9QL8+P4TAPBwd4+Hu3sAwMm5j3m/C4vFfmBUK0li5k2uTpDZTjTvd/H+45fUvWGnIaW+w04D7ngBePJz8343c+x43PwTIfJiaFQrwR0vMOw0ErMGAItZmLP1OUGWiBSQCMCtYNJjKJYLGCEWQUI9VxjVSnC9AK4XSMLlDUkmKJ5v8vabKJYLODn3pWtPohiCIqrrBRHwWwju5QGkJqg6zazx8kZLHpDsByrMv75L2i/ffMrcE6DOA7QJAMiFUFY9oBZKFMWPCmkUYLbDJxBVrRZWyzCZZJZF8B1jnVtiZAIw20naXITYm3/D6XiR+We5tYhCUUMmgH97pV7aOx0vNmZzqlAzqo8TP0rDO3bi7esa9l/sk+4DGgwGg8FgMBgA/ALLBhXaXOADRQAAAABJRU5ErkJggg==;" parent="1" vertex="1"><mxGeometry y="120" width="64" height="40" as="geometry"/></mxCell><mxCell id="203" value="" style="shape=image;verticalLabelPosition=bottom;labelBackgroundColor=#ffffff;verticalAlign=top;aspect=fixed;imageAspect=0;image=data:image/png,iVBORw0KGgoAAAANSUhEUgAAAEAAAAAoCAYAAABOzvzpAAAAAXNSR0IArs4c6QAAAjVJREFUaIHtmL9Lw0AUx7/+GFUQF9cs2kWEXFwqSSehDm5KVyGguLjpvyDolkUsCE6C6OaQQCcrZLFxcdEuXV1EUEclDnLxkiam1bxD8T5Qcnd99+vl/WoBhUKhUCgUin/KgKyNmG6G/cgH15dSzjYsYxOmm+GctgQAmChpvU4LZSiBfIPk5T3XyZ1TXdwEAHiuQ24JUiyA47kOWkEzV85gVqQEaqQqgGMwK2q3gmZXXyaDUnf7hUi1gOriJgxmdb1lsS/T/IGCFSCmutfHty+D18byHgBg/2wr1k5jVitjeHwoWrvIwFhohGW6GYoRXIRnAuDrVPhw28FEScPDbQcAcNU5B0CXGUhcwHOdb5sxVw5/VkufF6dwDRIFZFnBT9ajiguFFxlZJS8PdAazcFieyl3H9tup40UXRoVbgHhAppthvVbB2slFLNcDwNjMKABgZHoyNv5yd//R8AE+l7IalFYHcAtoBU3YfhtPN88APi4sfgBg5SBAY3cVGuv5d8O3IasDRFeo1yqRBRjMQr1WgX1yAfjpcxu7q1TH6oLEtJhuhtzPbb+Neq0S+77XN7uwfRS1qdyAJAierrOo/3TznBnQ8jgsT8H229GTQglSSuG0qJ+lFFF2bGY0002KQloaTNI4no/1x6d3AKArW4hQWACJAsQgtrB9hOS/QbzMTSNZJnuuQ5oOyYJgcowrgdf2eSTl/0wQFOGFECfvLfYrXwTkChD7eZfpV16hUCgUCoXiJ7wDeCzpDJk83/sAAAAASUVORK5CYII=;" parent="1" vertex="1"><mxGeometry y="160" width="64" height="40" as="geometry"/></mxCell><mxCell id="204" value="" style="shape=image;verticalLabelPosition=bottom;labelBackgroundColor=#ffffff;verticalAlign=top;aspect=fixed;imageAspect=0;image=data:image/png,iVBORw0KGgoAAAANSUhEUgAAAEAAAAAoCAYAAABOzvzpAAAAAXNSR0IArs4c6QAAANVJREFUaIHtmVEOgkAQQ2eNF/EEJuKXid7/VuPXJoTECLhtF7fvmzCdktkpEGHM0BRmsczMNdeVUmi6aIXWNl9hmUApsrX5CsOEE7pA79gAtQA1NkAtQA3EgOvlETlj731yQUuNFciaQYmNaL8aPQJqAWpgSQsxBohkCI+avxqBjsPDj4ANUAtQAzNguj2heaAVw2+BQ40AwtRDGYAAZsB9elE/uO6l+yA0B3EGnFvfEAEyDcoM+NQUe3VKDsEtT/Tv3gV6aj6CfAgyf3kZY4wxxpgvvAH45k32WEP2LAAAAABJRU5ErkJggg==;" parent="1" vertex="1"><mxGeometry y="200" width="64" height="40" as="geometry"/></mxCell><mxCell id="208" value="" style="shape=image;verticalLabelPosition=bottom;labelBackgroundColor=#ffffff;verticalAlign=top;aspect=fixed;imageAspect=0;image=data:image/png,iVBORw0KGgoAAAANSUhEUgAAAEAAAAAoCAYAAABOzvzpAAAAAXNSR0IArs4c6QAAAjVJREFUaEPtmL8vBEEcxed6JKLRXuM0GktDUEkodEQrkRCNjn9BQqcREolKInQKEhUSDafRoLlWo0FP3iZvMxmzl7nNfmezczvN3u3O3u77zPv+mKupLh+1LtevKgCVAzwSiEanfl0e13y+9+ZMbw+C+PH6Qqx/YLjelsP11b7yBcELAIp/bF2qufnNWDxEpg3M8QWhEAAQ99S8SwUwFk3H13y4oFAAFAoYts8VAA/JsBAHMAfYwgBOCD4H6AA2FvfUwcWW4jEIALZ671oCmRnNKiGVD3IPgbSSlxWAXjYlIIgD0FeSELjKtobo87UVN0o4om/AkMwJ4gBcWl+XOVKNUe4AIMa153cRzjkS9sdviwDQhbnAOJ4Y+sdi9eHdSzfoBcDR8kwicO3sNmmDUfIgvm+k12qGpcOmeDtcCABdrQ6gpzEYX/p5+4iPwQJg78+jzQUQ72NDJOoAxr8eAhCFMODANf07z9/srqjZ7ZPyhgDEn69H6uvlWyGhmRDqUfs/RSC+tA6geK4mIXRS9hAWACdV/vguuYcAbY/V1wF0Ih5zURlKmQQBgPELIWaN10seEx3h6NBKWwUIgKIYyzYH3JxOJqf7GzvJv0L63NKFAF7e7P5sO0Fsdsxhbo6k+n/9ubnnAFMUYRACd3hpOQHzCCIYACyBqPftLA1YrnM7Tapp8705wKWm66EjHftiZTCvlfH1O+IO8CUk63MqAFnJhXJf5YBQVjKrjsoBWcmFcl/XO+APFYtPOOe9UEEAAAAASUVORK5CYII=;" parent="1" vertex="1"><mxGeometry y="240" width="64" height="40" as="geometry"/></mxCell><mxCell id="209" value="" style="shape=image;verticalLabelPosition=bottom;labelBackgroundColor=#ffffff;verticalAlign=top;aspect=fixed;imageAspect=0;image=data:image/png,iVBORw0KGgoAAAANSUhEUgAAAEAAAAAoCAYAAABOzvzpAAAAAXNSR0IArs4c6QAAAn5JREFUaIHtmL2LGkEYxh+jZe6CpEm7BLxrjguONhvU6kALu4htYCEhjeX9C4Gks1MQrgpIyisUrvIObO724LhmY7NtmiXgpUzYFN5M3C+jp+9rQuYHsl+zOzOv78czA2g0/zUpzs5EvuQv086+vmAbV4arI5Ev+UWjDgB4um/8qbnPZQSWTsKTHw7aiW2rtRYAYDhos3gCmwdIhoM2ruzzxOcFUVZG4OARW08hCqKMgihHzrnZmgH+FthDoFproSDKgTCQ59zuD2zZA969+hg4boONZ9lDw0Qmm1b13r6+SK1YAgH8rgLz2uHHt5+pG3e80fFu3AMy2bRfrbWUKx8a5trflN+bN+ymIAsBWevloC/dUwCA57jwHDf2HXnfc1wUjbpSjot0w7qQJcGHJDMZHvJY3adPiCRKa1nNvyoUypBcai4yRs/MRe5Z40ngmloOs5TBbrMCYFbvZc3vmTnsHuxEfp/fisA71LAKoSS5+3jvGQDg+5ev6p4hDKA/Ih8TqxCS//6VfQ5rPMH09g7AbOJy8o2OjbMPr9nGROoB8/HfbVYCi59uswKrPwJCuoZz8gBhEhT5ki/judGxIzFtiMWK8Oj4BAB9EiQrg3LykkbHXukbPTMHazwhNwB5Epze3qnSFlf2ktg92ImEBwVkBpAJzhpPVFwfHZ+o8gdEvSLsNRyQ5gAAgcmHOfv0Up1n997Hlsl/MgdI5qtA0agHlsJxC6LwUpljY5Q0B4T3AjzHVavCWO5twrkrxKIEL91TSCMAyW4tjeU57tIbJ+vCYoCZBpjiTX+00KXvn/mz9jcYMoyNdTW4TDy/eG4i/SS90jsajUaj0Wg0mgfwC6+n803r8pWJAAAAAElFTkSuQmCC;" parent="1" vertex="1"><mxGeometry x="64" y="40" width="64" height="40" as="geometry"/></mxCell><mxCell id="210" value="" style="shape=image;verticalLabelPosition=bottom;labelBackgroundColor=#ffffff;verticalAlign=top;aspect=fixed;imageAspect=0;image=data:image/png,iVBORw0KGgoAAAANSUhEUgAAAEAAAAAoCAYAAABOzvzpAAAAAXNSR0IArs4c6QAAAsBJREFUaIHtWb9r20AU/lxnrF1Clq6i4HgxFJ+9uMieAvbgrcFrwODQxWP+hUK6eYvBkKkgMmawwZMT8JIoS5bUi9YuGep0Ta+DdKezJMsu+J0Tqg+EftzpTu/d+/G9UwqawYomj2u3765Tur4FAN7onIwVTV42migbzcj2eqO7UkGbxo6uiYTwAHDjXOLWvgr1KbEq6o0uAHBdlqDVAoIoserCeRvYqgJeAraigHqjixKrSje4ta9U89eKrVvAl8/ftjo/WaAR0fz513OK/wF2dtMyCO7ljdh3R8Me7Lvr1McPFaTfpTlAlx5JBmVFkwtzHg17C21qClQV8fjgYC9v4PHBAeBmCgBQx6FQAmkaHA17a/u1UIY41/O+4JSxgVQBy6zgX96nDoxkLrBu30ElJ6/b01lsXwoXIMsCQcrbb9XQb9UW+gwqOWQLGXlcHDPZd9k4mwaJC3grFbKCjjWRuT+O/RnMAKwJAD8YUmUBshigfrDqElGCv91/DwD4/ePn0jGooK0YikNQcJ3QzgRV+tuezjC/f5Jth2c2xqdH8p4VTe4dZN+j1QL6rdpCBdhv1dC2JsDUbVeFF/0NZuDg5JyDKGORKyCYEoNCjlmYFju2ywY71iSyfZOgrAUAgF8cM8zvn9CezkJpcBk6XgYYVHKSG7y6LABPeADIFjIYIOea+xpQBQdos4HWGKCyvjhkCxkZF6hBooBVVDhbyKw1jmcFpFyAzALGp0c4ODkH4Jt0lAUcntkAIGmw+uzVEyER8YUipF8r5j3+/gm7+18XGKJSAZLvDlNVg0CgFojaDRKbH8HnAlSbICqoiiFAUW5UTAjtEfi6QNlortw22xS0ZgEh1LKVZUWTu1xhjo5Fv/qARgXcOJcoY3VdL0iQrj9DWibxV9YVUPcP0DhoU4C4fknCJ0iQIEGCBAkS/Nf4C8IxDzkYCF+bAAAAAElFTkSuQmCC;" parent="1" vertex="1"><mxGeometry x="64" y="80" width="64" height="40" as="geometry"/></mxCell><mxCell id="211" value="" style="shape=image;verticalLabelPosition=bottom;labelBackgroundColor=#ffffff;verticalAlign=top;aspect=fixed;imageAspect=0;image=data:image/png,iVBORw0KGgoAAAANSUhEUgAAAEAAAAAoCAYAAABOzvzpAAAAAXNSR0IArs4c6QAAAF1JREFUaEPt1QERADAMArHi33SFfOagHBm7+Fv8/hOABsQTQCBeAJ8gAgjEE0AgXgArgAAC8QQQiBfACiCAQDwBBOIFsAIIIBBPAIF4AawAAgjEE0AgXgArgECdwANfiQApEtGAKwAAAABJRU5ErkJggg==;" parent="1" vertex="1"><mxGeometry x="64" y="120" width="64" height="40" as="geometry"/></mxCell><mxCell id="212" value="" style="shape=image;verticalLabelPosition=bottom;labelBackgroundColor=#ffffff;verticalAlign=top;aspect=fixed;imageAspect=0;image=data:image/png,iVBORw0KGgoAAAANSUhEUgAAAEAAAAAoCAYAAABOzvzpAAAAAXNSR0IArs4c6QAAAl5JREFUaIHtmL9r20AUx7+pMtY2oUtXU3CyGILO6eAieyrIQ7YGrwHRlC4eO/QfKKSblhKDoVMhdMwggackoCVRlyyuF61dPNTJmqiDOVWyrVjBeU81vc+iQ3r36+n9ugMUCoXiP2aNczKhG2EWOf/HOdu61rkmEroR7pR3AQDPtsqLxEMuJbBMMr1517FTZc1WBwDgOjaLJbBZgMR1bFz6Z6nfa6IRKYGDJ2wzTVETDdREY6bNTW4K+FdgdwGz1UFNNBJuINvc5g/kbAHv33xOPPMglyyQhZXNAvFi5/b37Vp4t9x42y/q0EpaNOZjK4XEBcxWB2arA62khesbk8VfBCcAgNEgwGgQzO0n348GAXbKuxC6EWolLZTjUUAWBF3HfvCipXvIp7n1tyhaOQXEK7plx6HMDCRBJuuhp1evzLyzvGGqPEVQJI+yQjfCbruJg+PTRL7v1SsoVgtz++wd+ZB9qDMBayGUVu4+3XwOALj5+YtzOQCYCyFpAZf+GSxviPHVNYDJxuXm94589A/3URbZ6oVlIbWAeCzotpuJw0+33YR1fAp4yT79w33KJc1A5l9CN0IZ5CxviG67mfi+6A+//vA1alPGAbIs8P2dAIDIzO+L7vPo1SuwvGH0pFICeRAsVgsYX11nSnlxmWK1MOMeFORaB/S/vYraG5uf7r0UobIAMgXEg9nHLyMAyZPgvPPA9EnRdWzyeoA0CMp21gtRyXQZvXJBMI5UhFTCRXCSuqH4vcEi2ceCpRKcpMBxJlN++3IMACxlMMBoAcBiU36IrEKhUCgUCsWy/AF+u/fZrovaLAAAAABJRU5ErkJggg==;" parent="1" vertex="1"><mxGeometry x="64" y="160" width="64" height="40" as="geometry"/></mxCell><mxCell id="213" value="" style="shape=image;verticalLabelPosition=bottom;labelBackgroundColor=#ffffff;verticalAlign=top;aspect=fixed;imageAspect=0;image=data:image/png,iVBORw0KGgoAAAANSUhEUgAAAEAAAAAoCAYAAABOzvzpAAAAAXNSR0IArs4c6QAAAmhJREFUaIHtmbFv2kAUh780jEkklCWrl8ASVYqhA1XIFAkGtqKskVATdWHMv1Ap3boRCSlTJZSRoZWYSCUvxFmyEBavWVhIdndwzthgB9Ryz63qT0K+8/l0fj/u3Xt3hpT/mzXpAc39A/e1dvvup+g7ZSQHM/cP3KJRA2A7b8Q95kqKICaAMn7gdL0bzrStUm0C8OP7V1UWE0F0BgycLrf2zdz9gln2RZDmTRKDFsxy6JokiQjwNyEqQNGoUTDLvhvc2jeJTn9IcAZ8+vAlqaFDaFtp3xolMtn1UMxfIgQCXjSYRVdU0DYDMtl1t2jUfKODjIdORI8wlWrTd41KtbkwgfpdtLuAH/dfyqo+HjohIVR5PHQoGrXIWaADrXnAdt6gkl9ugVNuoa7L9vtTtGZbq5y2utYAkXQzKES7tDvX3rBGfmgMJkcS6bBYGLw8PvTLW3uboR94hivjg8/qJrE8YCO3w0ZuJ7LNMF8Pk6tEVIDL40Ma1ojJ/RPPD488PzxSb9mhzFAa0d0gvIjQ6YM1rQc3R72LE9H30R0FANzrM5N6y57z7bipfnR+BcgsgtrD4PWZ6dfrLXupfu3SLg1rFLqnSwxxF+hdnHB0fhUZDhVbe5tgTYXw+ug5JRIXYBYVBpNCuwCT+6eFRgZdI+gyEugWYK1hjdw20dkfABb0vr0HIJv7LH5MJp4KA3MnQMFdodoMze4G//m9QNRhSNyWN3hMrjsUJrYIRhmnhFrmwGRViAkwcLoo4wZON/af/fhuAsBppy+SCIkJ4GWBk4WGnXb6gNw3QvFFUPrjZ0pKSkpKSkpKHL8AbFfqci0BPnYAAAAASUVORK5CYII=;" parent="1" vertex="1"><mxGeometry x="64" y="200" width="64" height="40" as="geometry"/></mxCell><mxCell id="217" value="" style="shape=image;verticalLabelPosition=bottom;labelBackgroundColor=#ffffff;verticalAlign=top;aspect=fixed;imageAspect=0;image=data:image/png,iVBORw0KGgoAAAANSUhEUgAAAEAAAAAoCAYAAABOzvzpAAAAAXNSR0IArs4c6QAAAkhJREFUaEPtmLEvBEEUxvd6JKLRXuM0GktDUEkodEQrkRCNjn9BQqcREolKInQKkquQaDiNBs21Gg168k3yNpMxe/f2Mm/Wzu02c3s7u7Pfb755781Woi4/Kl2uP8oNQDw69cOB33i6E31H0YenCYT48eqCujwwXG3J4fpqP5KE4B0AiX9oXkZz85tKPESmHegjCSF3ABD32LhNBTAWT6trUi74NwBIKGDYfpcAhIJh7g6gGGBbBnBC8DFAB7CxuBcdXGxF1AYBwJbvuSmQIqOZJVzGA9ElkJbyOgWgp01XELwC0GeSINAs2wqij5emKpTQom7A4TomeAXAKX05fVwWRqIAIIZb83OEUx9X9sfzxAHowjgwjieG/rBYvX8Tqwa9AzhankkErp3dJGUwUh7E9430Ws2wdNgQKYdzB6Cr1QH01AbVpe/Xd9UGC4Bqf2ptLoB4qQ2RuAPMda8vAYjCMqAD1/Rz+r++uxLNbp8UawmQ8PP1WOn4fP5SLQKaCaEat/4oAvGFcgDE06wRABNClrQnJV4sDRIADIDZM12QRTyyglQA9AYAgQ3W13O8me4o0BEc3TmFAwARnKJHd0L9dDI57a/tJF+F6E+X1Z8+rngWoMFoZ5i26TGXhd7PZe1vjuMFgO0zeKsvwfSStP3FuRQEbwAggrbA2Nq2s7QJrfAAKPej0GknnmJI1nuyZBfq69UBWfK5HkQ5wDoRL5YGO32ZPO7z4oA8hHHHLAFwSYXar3RAqDPL1VU6gEsq1H6lA0KdWa6uX3I7YDhU6kXfAAAAAElFTkSuQmCC;" parent="1" vertex="1"><mxGeometry x="64" y="240" width="64" height="40" as="geometry"/></mxCell><mxCell id="218" value="" style="shape=image;verticalLabelPosition=bottom;labelBackgroundColor=#ffffff;verticalAlign=top;aspect=fixed;imageAspect=0;image=data:image/png,iVBORw0KGgoAAAANSUhEUgAAAEAAAAAoCAYAAABOzvzpAAAAAXNSR0IArs4c6QAAAldJREFUaIHtmL9r20AUx79uvNpgumXTkDSLCficxcH2VLCHbA5eC4KELB77LxTazVsMgU4F0zGDDZ2cgJZEgZDF8aI1iykkGRPU6V1lWVblRO+5pfdZ9GSfdHeP9+N7AgwGg8Hw/5KRnEyVqn6Sce7Vudi6slITqVLV37H2AABvt6w/DfelnCAySXjzw0F34dhGswMAGA66IpEgFgHEcNDFpXu28P+yqmknSPBGbKYQZVVDWdXmbGlW5oC/BfEUaDQ7KKvaTBqQLR3+wIoj4Kj1Zea6ClKvsttWBdnCmu737tV5ZskWCOB3Fwhqh6efz5lrz0l1valHQLaw5jeaHR3K21bl1e+k9wUdmxZsKUC9nhZ94Z0CAKZjD9OxF/kM/T4de9ix9rRyjNMNr4WtCL6kmFF60LWxxV8QWZRWUs2/LBzKkF1qBp0RbHcnlc2Fz9jORNvcclikDfbadQDzii9fzCFfzGG9tYH11oa+B4Afnz9ILE1WB1AEXLpnsJ0J7m8eAACPt3d4vL0DAOwfu2KbB5iVYDD8e+36jPbvteuw+yMg1NYlNw8w1gBVqvqU57Yz0WlAWCpeEL3/+FXbnHWArQt8P1T6/v7mYaawJeGksgnbmegrlxPEDkNxVT+KfDE3lx4csDlg/9jVNm2eKnzUGAAIRg2xbOQsC5sDgsVM53O44H3b1Xbh3afIjyK9dh0H/RHLGgHmIkh21Ekw6jwQPinSGeCfK4JBwo6gQ1Ec5LAL75RdCYp9FaY2eNAfLdxU0nFpIuYAsuM2lXScwWAwGAwGQxr8Aipt3uSchlOCAAAAAElFTkSuQmCC;" parent="1" vertex="1"><mxGeometry x="128" y="40" width="64" height="40" as="geometry"/></mxCell><mxCell id="219" value="" style="shape=image;verticalLabelPosition=bottom;labelBackgroundColor=#ffffff;verticalAlign=top;aspect=fixed;imageAspect=0;image=data:image/png,iVBORw0KGgoAAAANSUhEUgAAAEAAAAAoCAYAAABOzvzpAAAAAXNSR0IArs4c6QAAAsRJREFUaIHtWb9r20AU/lxnrF1Clq6i4HgxFJ29uMieAvbgrcFrwODQxWP+hUK6eYvBkKkgMmawwZMT8JIoS5bUi9YuGep0TdVBPvn000qjd06JPhA+rHd3eu/efe87CXjlyMicjKmaFcfOuLmU9lxvZE3EVM2qKC1UlFakXaPZix2oJLAlYxLuPABcmee4Ni5CbcushkazBwCWjEyQlgFelFkNZVbztWVjYwF4KZCyBUQ0mj2UWc21DXhbSH9p2GgGfPn8zfW7CZCQDGfxx1+PGesPsLWddUhwp6jEGmM86sO4ucx8/FBF9l3WAmjKY+IDMlWzeBqPR33XPbEEBgXi/s7ETlHB/Z0JwK4YACCOl3QQyDhgPOo/eT/zoPDfRnHlOBU3kAUgLAv+ZRxKYiTZAnFth9WC77/ObB7ZJ+ktQFIFvJJ30K5j0K67bIbVAvKlnO86O2ROn7DxkkTiW2C5Qr4s6OpTV71fB4UpgD4FsCJDiipAwgHig4pbIszxt7vvAQC/f/yMHIsCUoUQz4Br4wKd2RyL2wcAtuPc+f0TA5PjA6cPUzVreZE8kzQpPGjXXYefQbuOjj4FZm470XneT2EK9o5OLRCQNmkAvBXB69yEhatC07DFUFefRto9F1RSGACss0OGxe0DOrO5rwqsQ3dJgMNqwSmN/w0JYuk8AORLOQxRsNP9CRAdB+jIMPEAhAmhINEThXwpB8wcYURWCUgyYHJ8gL2jUwCrleQByJdyjt3+ieHqx7NGvEddBslIkBMeD4STzgLrT75/ctrbu19dOkHQ/6TvBinOAoBHCQa9C+BHXhFBR2SKI7AICikMCIEN4oTQE6IQk4rSiv3y5DmQJoS4M+tWlKmaZZfMBbo67eoDkgJwZZ6jgvinOa4BZHwXIJ9gtaK2YzI/e8WBlADw9ktzPkWKFClSpEiRIsVrxl/NRhUKpYpqxwAAAABJRU5ErkJggg==;" parent="1" vertex="1"><mxGeometry x="128" y="80" width="64" height="40" as="geometry"/></mxCell><mxCell id="220" value="" style="shape=image;verticalLabelPosition=bottom;labelBackgroundColor=#ffffff;verticalAlign=top;aspect=fixed;imageAspect=0;image=data:image/png,iVBORw0KGgoAAAANSUhEUgAAAEAAAAAoCAYAAABOzvzpAAAAAXNSR0IArs4c6QAAAF1JREFUaEPt1QERADAMArHi33SFfOagHBm7+Fv8/hOABsQTQCBeAJ8gAgjEE0AgXgArgAAC8QQQiBfACiCAQDwBBOIFsAIIIBBPAIF4AawAAgjEE0AgXgArgECdwANfiQApEtGAKwAAAABJRU5ErkJggg==;" parent="1" vertex="1"><mxGeometry x="128" y="120" width="64" height="40" as="geometry"/></mxCell><mxCell id="221" value="" style="shape=image;verticalLabelPosition=bottom;labelBackgroundColor=#ffffff;verticalAlign=top;aspect=fixed;imageAspect=0;image=data:image/png,iVBORw0KGgoAAAANSUhEUgAAAEAAAAAoCAYAAABOzvzpAAAAAXNSR0IArs4c6QAAAF1JREFUaEPt1QERADAMArHi33SFfOagHBm7+Fv8/hOABsQTQCBeAJ8gAgjEE0AgXgArgAAC8QQQiBfACiCAQDwBBOIFsAIIIBBPAIF4AawAAgjEE0AgXgArgECdwANfiQApEtGAKwAAAABJRU5ErkJggg==;" parent="1" vertex="1"><mxGeometry x="128" y="120" width="64" height="40" as="geometry"/></mxCell><mxCell id="222" value="" style="shape=image;verticalLabelPosition=bottom;labelBackgroundColor=#ffffff;verticalAlign=top;aspect=fixed;imageAspect=0;image=data:image/png,iVBORw0KGgoAAAANSUhEUgAAAEAAAAAoCAYAAABOzvzpAAAAAXNSR0IArs4c6QAAAlJJREFUaIHtmb9r20AUx79pPLYBkyWrFsdLKeTsDCqxp4I9eIvxWhBJyOIx/0Ig2bLZIOhUMBk9tJDJKXhxlKWL60VrFy9OdmVw3iFZViwLvVOa3geE706nH/fu3XvfkwGNRvM/s6HqQWLvwFunv3P/S8m75VQ8ROwdeGWjAQDYLhpxL/NUGIHdADT4kdufN7jRfWv1NgDg548rKrMbQYkHjNw+7pzblf1KoiKNoAolBiBKoiLLd85tqJ4F7zJ56itCiQeUjQZKohKaZX89C/cHMvCA08NLnB5ehspZkXqE/WSYyOU3Azk/QQoEMM8Gi6SdFVL3gFx+0ysbDTloP9PxCzkwglq9LZdGrd5eW1Ctgm0JyLz/XKb6dOzKYxnUPh27KBuNpV6QJixBcLtooFZMFtBomdBv0vvEhUVlpe2mftKOAawy028I2yys7G8NJzI1+kUSpxxm1wHdVhUAYPUGsM0Ctj5+wPvdnUCfxz9/0ew4Uh2SEbqtKo57A9b3UyaFu60qrN4AGEafp1kviQpuLr7OTzAbgCsGAIB3fSLQ7DjSCwhDxNMDX86+AeBdAmxB8PpEyHqz4yS6j20WYA0ngbZXL4SI2e+HQJ1c2jYLgSMKihdUpnuknWG4YsCGNZx4NsIDXJzRm++fA/X87jmA5ywQES/SRFkaBBDa7b0kjUkILSrBf04HLNsIxZW3/k9kXIFQ6RchIN5gyHBJNk/rwm6AkdsHDWbk9mPP5NH+DABw3Bu8BSU4W3sgpAC5vworC4Kq/ujQaDQajUaj0Wji8QTkH+qLerjaSgAAAABJRU5ErkJggg==;" parent="1" vertex="1"><mxGeometry x="128" y="200" width="64" height="40" as="geometry"/></mxCell><mxCell id="226" value="" style="shape=image;verticalLabelPosition=bottom;labelBackgroundColor=#ffffff;verticalAlign=top;aspect=fixed;imageAspect=0;image=data:image/png,iVBORw0KGgoAAAANSUhEUgAAAEAAAAAoCAYAAABOzvzpAAAAAXNSR0IArs4c6QAAAjtJREFUaEPtmLEvBEEUxud6JKLRXuM0GktDUEkodEQrkRCNjn9BQqcREolKInQKkquQaDiN5miu1WjQk2+T7/KM3c1u7Lzb3dtpFjtu5vu9b957NxXT5aPS5fpNCUDbAd7o1HecNRtPdyrBUVmEgiF+vLrg/zowXI3kcH21bzQgqAGwxUNg2Jib3/RfaUDoCICH1qV5bNyGAhjzpg0gFB4AhGIAhv1zCaDIDkAChL2DjgHtX+gcIAFsLO6Zg4stw2dhAMh6j3KWpAQyOzIJ2p8Vp4+IO8dJFcCG7VL2XwCuSqNTAEG1no1QWDP03mz5TRKeGCiZHC4qg1MAcW2YZF7avYETABAUt+dPIh5z026PnQGQwqJgHE8M/WGwev/6629pi5YfrgbgaHnGrJ3dtGs/yh3E9430Bppg6bBh+D+FAiDVSgA9tUH/1dfLm/8EgPruipndPknd9h13AKLP/j/IBRSPjeYeAM8/7IyBY8BBi9tnAJHnyDUAiD9f98zH86dBYiMEiqt60ZciEO8i86scAYrnYoSQpOzheABc7pIgbY/oSwBJxGMuKgTyQS4BMINDCCPJmi9LHwTKIaGxGuQWgExkYdGvn062X/XXdto3Q3J+7gBg83b3F3QbzC88Uqx9W5x2728HQq0TtAFE3QrLuYUBAPIUhq+4YbaGc2TP4NL+2JOaA+KKcnn7E5SH1ABwcdcRTVpqVQAk3ZTm/BKAJu0srlU6IItR0dxT6QBN2llcq3RAFqOiuacfi6ZgOJdSPHMAAAAASUVORK5CYII=;" parent="1" vertex="1"><mxGeometry x="128" y="240" width="64" height="40" as="geometry"/></mxCell><mxCell id="227" value="" style="shape=image;verticalLabelPosition=bottom;labelBackgroundColor=#ffffff;verticalAlign=top;aspect=fixed;imageAspect=0;image=data:image/png,iVBORw0KGgoAAAANSUhEUgAAAEAAAAAoCAYAAABOzvzpAAAAAXNSR0IArs4c6QAAAF1JREFUaEPt1QERADAMArHi33SFfOagHBm7+Fv8/hOABsQTQCBeAJ8gAgjEE0AgXgArgAAC8QQQiBfACiCAQDwBBOIFsAIIIBBPAIF4AawAAgjEE0AgXgArgECdwANfiQApEtGAKwAAAABJRU5ErkJggg==;" parent="1" vertex="1"><mxGeometry x="128" y="160" width="64" height="40" as="geometry"/></mxCell><mxCell id="228" value="" style="shape=image;verticalLabelPosition=bottom;labelBackgroundColor=#ffffff;verticalAlign=top;aspect=fixed;imageAspect=0;image=data:image/png,iVBORw0KGgoAAAANSUhEUgAAAEAAAAAoCAYAAABOzvzpAAAAAXNSR0IArs4c6QAAAoRJREFUaIHtmTFr20AUx/+uMtY2oUtXUXCyGIrOWVzkTAF5yFaTNWBI6eIxX6GQbt4cMHQqhI4dbPCUBLw0CoUsrqFo7eKhSddUHZynns5S7BLdc03ut0g+ne7ee3r33rszYHjc5DgnE44bLtLPvzxnk2uNayLhuOGWvQsAeLZpz+sechmBZRJV+X6vndrXq7cAAP1em8UT2DyA6PfauPDPUp9XRC0yAgdP2GZSqIgaKqI2c8/N0gzwv8C+BLx6CxVRiy0Duud2f2DJHvD29fvYdRksJQsswspmAbnYuf15mwt/P2y8ly+qsIpWNGbWRtGyBLx6C169BatohWvrU+G/BJ8BAJNRgMkoSHyP2iejAFv2LoTjhlbRCmk8HWgLgv1e+5+FpuVBV2/zb1G0cgaQK7qHjqMzM2gJMotuerrV0kxbczhO7a8jKGqPssJxw+O9bRycnMbyfbdaQqGcT3yn0fFB7+jOBKyFUFq5+3TjOQDg17cfUZstbODkVLtMrIUQecCFf4bmcIzrqxsAU8VJ+UbHx+Bon00mbe4lx4HjvW0AwIH0RcnFVWTldw4/ANB7QJL5wKT4pzcCAHB9dYPmcBwZgbDF/RUhKd+tlqLAqMMQmcYA4bjh4Gg/Eh4ACuU8uiihqX7tOetbVhyYesbOYfYnRVqCIBmBvABITnn3USjngSESvSdLtGYBcn9SXk17jY4f+y0bjAttMWARBh9fRffrG+/mngqtRCEkHFdtStwKJ22I1K3yXRkdyehfnmclZkTmS0AVUjaIrDTtDmMEgGosHUrLsB2IADP1QE5Wjkpm6TnLgQjbPzB3npB6sKEepHz9PuQSzWAwGAwGg8FgeIz8AX2hAhtxr6T4AAAAAElFTkSuQmCC;" parent="1" vertex="1"><mxGeometry x="192" y="40" width="64" height="40" as="geometry"/></mxCell><mxCell id="229" value="" style="shape=image;verticalLabelPosition=bottom;labelBackgroundColor=#ffffff;verticalAlign=top;aspect=fixed;imageAspect=0;image=data:image/png,iVBORw0KGgoAAAANSUhEUgAAAEAAAAAoCAYAAABOzvzpAAAAAXNSR0IArs4c6QAAAF1JREFUaEPt1QERADAMArHi33SFfOagHBm7+Fv8/hOABsQTQCBeAJ8gAgjEE0AgXgArgAAC8QQQiBfACiCAQDwBBOIFsAIIIBBPAIF4AawAAgjEE0AgXgArgECdwANfiQApEtGAKwAAAABJRU5ErkJggg==;" parent="1" vertex="1"><mxGeometry x="192" y="80" width="64" height="40" as="geometry"/></mxCell><mxCell id="230" value="" style="shape=image;verticalLabelPosition=bottom;labelBackgroundColor=#ffffff;verticalAlign=top;aspect=fixed;imageAspect=0;image=data:image/png,iVBORw0KGgoAAAANSUhEUgAAAEAAAAAoCAYAAABOzvzpAAAAAXNSR0IArs4c6QAAAF1JREFUaEPt1QERADAMArHi33SFfOagHBm7+Fv8/hOABsQTQCBeAJ8gAgjEE0AgXgArgAAC8QQQiBfACiCAQDwBBOIFsAIIIBBPAIF4AawAAgjEE0AgXgArgECdwANfiQApEtGAKwAAAABJRU5ErkJggg==;" parent="1" vertex="1"><mxGeometry x="192" y="120" width="64" height="40" as="geometry"/></mxCell><mxCell id="231" value="" style="shape=image;verticalLabelPosition=bottom;labelBackgroundColor=#ffffff;verticalAlign=top;aspect=fixed;imageAspect=0;image=data:image/png,iVBORw0KGgoAAAANSUhEUgAAAEAAAAAoCAYAAABOzvzpAAAAAXNSR0IArs4c6QAAAF1JREFUaEPt1QERADAMArHi33SFfOagHBm7+Fv8/hOABsQTQCBeAJ8gAgjEE0AgXgArgAAC8QQQiBfACiCAQDwBBOIFsAIIIBBPAIF4AawAAgjEE0AgXgArgECdwANfiQApEtGAKwAAAABJRU5ErkJggg==;" parent="1" vertex="1"><mxGeometry x="192" y="160" width="64" height="40" as="geometry"/></mxCell><mxCell id="232" value="" style="shape=image;verticalLabelPosition=bottom;labelBackgroundColor=#ffffff;verticalAlign=top;aspect=fixed;imageAspect=0;image=data:image/png,iVBORw0KGgoAAAANSUhEUgAAAEAAAAAoCAYAAABOzvzpAAAAAXNSR0IArs4c6QAAAmdJREFUaIHtmbFPIkEUxj8OWkiInd0WejTExIEruIiVCRR0EFsTIsaG0n/BxOvsMCGxMiGWFF5CxV2yDbc2NkizrQ0N2q8FzLjLLi4rvsddbn7Nzs7OZHa+efPem11Ao/mviXEOJnb3nGXaWfe/2d4rwTWQ2N1z8kYFALCRMcKaO1wisAggJz+wu9MK29+mVG4CAH7eXcoyiwhsFjCwu/hj/Vr4PCeKSgROvnAPmBNF5ETRV14X7AL8bbBtgbxRQU4UPdtAltdl/sCaLOC0+sNzXSckXnbHKCCRjntifoQQCGAaDeahiAokFpBIx528UVGTdjMeBsTABZTKTbU1SuXm0olUFEi3gIr7s7K8Hw/tQCFk3XhoI29UAq3gsyFzghsZA6VMNMcmt4e8Ru3/EcgyLQpzpfAB5KmmW4h2YXthu7o58oRFCXU6zBIGrw73VTmVTSKVTWKzuoXN6pa6B7yZobsPJWx5wNXhPurmCJOHZwDAy+MTXh6fAAC1lqVWX14NsVy4XBW2TBCYidDpA6a/3n0+6F0csb0TpRMEAOf2RKDWsnwmHbbCB2fXAOh9AGkUuD0R6r7WsiL1bxe2UTdHnjoKMVi3QO/iCAdn1+9GA0kqmwTMNyGmfT//IwmpAJOHZ+Xhg5DP5q3DbTnUUAoQq5sjpw3/aivTnjnD3s139Sz99Zz1IwlrIgTAd+4POhPIVHj+LPDPZoJBR+Gwg477IyllJGB1gpL3JiUFi3JsXgUWAQZ2F3JSA7sbuqLH3yYAgEanT54HsAgwTYImS0+o0ekD4PlDxOoEOX95aTQajUaj0WhCeAUXu+2Q5CglZAAAAABJRU5ErkJggg==;" parent="1" vertex="1"><mxGeometry x="192" y="200" width="64" height="40" as="geometry"/></mxCell><mxCell id="236" value="" style="shape=image;verticalLabelPosition=bottom;labelBackgroundColor=#ffffff;verticalAlign=top;aspect=fixed;imageAspect=0;image=data:image/png,iVBORw0KGgoAAAANSUhEUgAAAEAAAAAoCAYAAABOzvzpAAAAAXNSR0IArs4c6QAAAF1JREFUaEPt1QERADAMArHi33SFfOagHBm7+Fv8/hOABsQTQCBeAJ8gAgjEE0AgXgArgAAC8QQQiBfACiCAQDwBBOIFsAIIIBBPAIF4AawAAgjEE0AgXgArgECdwANfiQApEtGAKwAAAABJRU5ErkJggg==;" parent="1" vertex="1"><mxGeometry x="192" y="240" width="64" height="40" as="geometry"/></mxCell><mxCell id="237" value="" style="shape=image;verticalLabelPosition=bottom;labelBackgroundColor=#ffffff;verticalAlign=top;aspect=fixed;imageAspect=0;image=data:image/png,iVBORw0KGgoAAAANSUhEUgAAAEAAAAAoCAYAAABOzvzpAAAAAXNSR0IArs4c6QAAAqFJREFUaIHtWb9r20AU/tx4bAKmS1ctTpYQ8NkdVGxPBXvwluA1IJrQxWP/hUK6eYvB0KlgMnawwZNj0NLIULK4WrR2MQWnY4s6WHc9yZJr17rnQu4DI+ks3b337v34ngRoaDxqZCgXY4Wyv859zmRMJleWaiFWKPslowEAeHZk/O12n8oIJItElR/024n31uotAMCg3ybxBDIP4Bj027hzbhP/L7KKMAIFnpCtFEGRVVBklaVzauzMAP8LyEOgVm+hyCqhMODn1O4P7NgD3py+Dx13gdSz7IlhIpvbE/XemYwzG5ZAAH+qgMwdfn7/lfni2anKm7oHZHN7fq3eEq58Yphbz8nnkw2bFpSFAK/1XOjP3icAwGzqYTb1Yp/h47Oph5LREMxxFW/YFsqS4L8kMx4e/Fg7Up8QlTCtdTn/plDBDJVTzVXG6Jr5pTHLdkPXqukwSRnsNKsAFvWe1/yumcfB8f7S7+aShZ5RDVIilER3nx4+BwD8+PpNjBnMAHoj5TKREiG++3fOLSzbxfz+AcBCca782bWD4dU5mUxKPUCO/06zGmp+Os0qrN4IiPAaSuUBdVUAAPybS4b5/QMs212KaYOtZoSv3n6QLzPOZJy2mIuJVUzKCmWfJzMAwgiboGvmYdmuOKqqBqmHQFLZiyt5q3BwvB8KD1YoK3lNpiQHDK/OhQvLOwkEigU4u3ZCz8lew2HZbmi+tKEsCfJkxgUXISDt6vDjS3GeO3wXWyZV84HUXYonQHksrhWOa4iirXKkCVKSCFP3gEBIYdi4nJDY3QU2kRsp1VRYORMMFPABoIRGdDwE/uJkNvXWfnGyLcio8CKW57jojVbu6usXcwDARY/muwDVhxFAygtJisnhQvl5TENDQ0NDQ0PjUeI3E0H/ifV1dQ8AAAAASUVORK5CYII=;" parent="1" vertex="1"><mxGeometry x="256" y="40" width="64" height="40" as="geometry"/></mxCell><mxCell id="238" value="" style="shape=image;verticalLabelPosition=bottom;labelBackgroundColor=#ffffff;verticalAlign=top;aspect=fixed;imageAspect=0;image=data:image/png,iVBORw0KGgoAAAANSUhEUgAAAEAAAAAoCAYAAABOzvzpAAAAAXNSR0IArs4c6QAAAF1JREFUaEPt1QERADAMArHi33SFfOagHBm7+Fv8/hOABsQTQCBeAJ8gAgjEE0AgXgArgAAC8QQQiBfACiCAQDwBBOIFsAIIIBBPAIF4AawAAgjEE0AgXgArgECdwANfiQApEtGAKwAAAABJRU5ErkJggg==;" parent="1" vertex="1"><mxGeometry x="256" y="80" width="64" height="40" as="geometry"/></mxCell><mxCell id="239" value="" style="shape=image;verticalLabelPosition=bottom;labelBackgroundColor=#ffffff;verticalAlign=top;aspect=fixed;imageAspect=0;image=data:image/png,iVBORw0KGgoAAAANSUhEUgAAAEAAAAAoCAYAAABOzvzpAAAAAXNSR0IArs4c6QAAAF1JREFUaEPt1QERADAMArHi33SFfOagHBm7+Fv8/hOABsQTQCBeAJ8gAgjEE0AgXgArgAAC8QQQiBfACiCAQDwBBOIFsAIIIBBPAIF4AawAAgjEE0AgXgArgECdwANfiQApEtGAKwAAAABJRU5ErkJggg==;" parent="1" vertex="1"><mxGeometry x="256" y="120" width="64" height="40" as="geometry"/></mxCell><mxCell id="240" value="" style="shape=image;verticalLabelPosition=bottom;labelBackgroundColor=#ffffff;verticalAlign=top;aspect=fixed;imageAspect=0;image=data:image/png,iVBORw0KGgoAAAANSUhEUgAAAEAAAAAoCAYAAABOzvzpAAAAAXNSR0IArs4c6QAAAF1JREFUaEPt1QERADAMArHi33SFfOagHBm7+Fv8/hOABsQTQCBeAJ8gAgjEE0AgXgArgAAC8QQQiBfACiCAQDwBBOIFsAIIIBBPAIF4AawAAgjEE0AgXgArgECdwANfiQApEtGAKwAAAABJRU5ErkJggg==;" parent="1" vertex="1"><mxGeometry x="256" y="160" width="64" height="40" as="geometry"/></mxCell><mxCell id="243" value="" style="shape=image;verticalLabelPosition=bottom;labelBackgroundColor=#ffffff;verticalAlign=top;aspect=fixed;imageAspect=0;image=data:image/png,iVBORw0KGgoAAAANSUhEUgAAAEAAAAAoCAYAAABOzvzpAAAAAXNSR0IArs4c6QAAAF1JREFUaEPt1QERADAMArHi33SFfOagHBm7+Fv8/hOABsQTQCBeAJ8gAgjEE0AgXgArgAAC8QQQiBfACiCAQDwBBOIFsAIIIBBPAIF4AawAAgjEE0AgXgArgECdwANfiQApEtGAKwAAAABJRU5ErkJggg==;" parent="1" vertex="1"><mxGeometry x="256" y="200" width="64" height="40" as="geometry"/></mxCell><mxCell id="245" value="" style="shape=image;verticalLabelPosition=bottom;labelBackgroundColor=#ffffff;verticalAlign=top;aspect=fixed;imageAspect=0;image=data:image/png,iVBORw0KGgoAAAANSUhEUgAAAEAAAAAoCAYAAABOzvzpAAAAAXNSR0IArs4c6QAAAF1JREFUaEPt1QERADAMArHi33SFfOagHBm7+Fv8/hOABsQTQCBeAJ8gAgjEE0AgXgArgAAC8QQQiBfACiCAQDwBBOIFsAIIIBBPAIF4AawAAgjEE0AgXgArgECdwANfiQApEtGAKwAAAABJRU5ErkJggg==;" parent="1" vertex="1"><mxGeometry x="256" y="240" width="64" height="40" as="geometry"/></mxCell><mxCell id="246" value="" style="shape=image;verticalLabelPosition=bottom;labelBackgroundColor=#ffffff;verticalAlign=top;aspect=fixed;imageAspect=0;image=data:image/png,iVBORw0KGgoAAAANSUhEUgAAAEAAAAAoCAYAAABOzvzpAAAAAXNSR0IArs4c6QAAAmNJREFUaIHtmL9rIkEUx79ebBXkunRbJJdGAo42BrU60MLOYHuwkOMay/sXDpLOLkIg1YFcmUIhlQlsYzYQ0hibbdPIgUl5x15xvLlxXX9ssvO84+bT7KzO7sw834/vEzAYDAbD/0uCczGRK/nrzHNvr9n2leRaSORKfsGqAwDe7lmrpvtcRmBZJHj4fq+9cG611gIA9HttFk9g8wCi32vjxr1a+H1elKUROHjDtlKAvCgjL8pzY242ZoC/BfYQqNZayIvyTBjQmNv9gQ17wKfGycx1E8SeZfetIpKZLVnv3dvrRMQSCOBPFVC1w4/vPxN3nhPrfmP3gGRmy6/WWtKV963iq99J71MNGxfaQoBqPW166F0AACYjD5ORF/oMfT4ZeShYdakcl+mG16ItCb4kmVF40LW6pz8halFa62r+qOhQhtqlpmoMtdydFXcXPmM7YznWLYdZymCnWQEwr/jS2RTS2RS2GzvYbuzIewC4PP7AsTVeHUAecONewXbGmN4/AQCeHx7x/PAIADg8ddkOD2hWgqr7d5qVGe3faVZgdwdAoKxzHh7QmANEruRTnNvOWIYBYYnlguj953M51pkHtFWBbx+FvJ/eP80ktnU4K+7CdsbyqssIbM3QsqwfRjqbmgsPHWgzwOGpK8fq4SnLB+cAgOo1RFTPiYo2A6jJTI1n9Ve9/Hogx5l3X0L/FOk0KzjqDrTsEdCcBGkc1gmG9QPBTpF6gH8uCaqQIcgI1BStomDVMfQutCtBliT4uwROcdQdrDyQyJV8mj8MbxpjhbUXWOfXjDrfYDAYDAaD4aX8Atsj3KWz+TCoAAAAAElFTkSuQmCC;" parent="1" vertex="1"><mxGeometry x="320" y="40" width="64" height="40" as="geometry"/></mxCell><mxCell id="247" value="" style="shape=image;verticalLabelPosition=bottom;labelBackgroundColor=#ffffff;verticalAlign=top;aspect=fixed;imageAspect=0;image=data:image/png,iVBORw0KGgoAAAANSUhEUgAAAEAAAAAoCAYAAABOzvzpAAAAAXNSR0IArs4c6QAAAF1JREFUaEPt1QERADAMArHi33SFfOagHBm7+Fv8/hOABsQTQCBeAJ8gAgjEE0AgXgArgAAC8QQQiBfACiCAQDwBBOIFsAIIIBBPAIF4AawAAgjEE0AgXgArgECdwANfiQApEtGAKwAAAABJRU5ErkJggg==;" parent="1" vertex="1"><mxGeometry x="320" y="80" width="64" height="40" as="geometry"/></mxCell><mxCell id="248" value="" style="shape=image;verticalLabelPosition=bottom;labelBackgroundColor=#ffffff;verticalAlign=top;aspect=fixed;imageAspect=0;image=data:image/png,iVBORw0KGgoAAAANSUhEUgAAAEAAAAAoCAYAAABOzvzpAAAAAXNSR0IArs4c6QAAAF1JREFUaEPt1QERADAMArHi33SFfOagHBm7+Fv8/hOABsQTQCBeAJ8gAgjEE0AgXgArgAAC8QQQiBfACiCAQDwBBOIFsAIIIBBPAIF4AawAAgjEE0AgXgArgECdwANfiQApEtGAKwAAAABJRU5ErkJggg==;" parent="1" vertex="1"><mxGeometry x="320" y="120" width="64" height="40" as="geometry"/></mxCell><mxCell id="249" value="" style="shape=image;verticalLabelPosition=bottom;labelBackgroundColor=#ffffff;verticalAlign=top;aspect=fixed;imageAspect=0;image=data:image/png,iVBORw0KGgoAAAANSUhEUgAAAEAAAAAoCAYAAABOzvzpAAAAAXNSR0IArs4c6QAAAF1JREFUaEPt1QERADAMArHi33SFfOagHBm7+Fv8/hOABsQTQCBeAJ8gAgjEE0AgXgArgAAC8QQQiBfACiCAQDwBBOIFsAIIIBBPAIF4AawAAgjEE0AgXgArgECdwANfiQApEtGAKwAAAABJRU5ErkJggg==;" parent="1" vertex="1"><mxGeometry x="320" y="160" width="64" height="40" as="geometry"/></mxCell><mxCell id="250" value="" style="shape=image;verticalLabelPosition=bottom;labelBackgroundColor=#ffffff;verticalAlign=top;aspect=fixed;imageAspect=0;image=data:image/png,iVBORw0KGgoAAAANSUhEUgAAAEAAAAAoCAYAAABOzvzpAAAAAXNSR0IArs4c6QAAAF1JREFUaEPt1QERADAMArHi33SFfOagHBm7+Fv8/hOABsQTQCBeAJ8gAgjEE0AgXgArgAAC8QQQiBfACiCAQDwBBOIFsAIIIBBPAIF4AawAAgjEE0AgXgArgECdwANfiQApEtGAKwAAAABJRU5ErkJggg==;" parent="1" vertex="1"><mxGeometry x="320" y="200" width="64" height="40" as="geometry"/></mxCell><mxCell id="254" value="" style="shape=image;verticalLabelPosition=bottom;labelBackgroundColor=#ffffff;verticalAlign=top;aspect=fixed;imageAspect=0;image=data:image/png,iVBORw0KGgoAAAANSUhEUgAAAEAAAAAoCAYAAABOzvzpAAAAAXNSR0IArs4c6QAAAF1JREFUaEPt1QERADAMArHi33SFfOagHBm7+Fv8/hOABsQTQCBeAJ8gAgjEE0AgXgArgAAC8QQQiBfACiCAQDwBBOIFsAIIIBBPAIF4AawAAgjEE0AgXgArgECdwANfiQApEtGAKwAAAABJRU5ErkJggg==;" parent="1" vertex="1"><mxGeometry x="320" y="240" width="64" height="40" as="geometry"/></mxCell><mxCell id="255" value="" style="shape=image;verticalLabelPosition=bottom;labelBackgroundColor=#ffffff;verticalAlign=top;aspect=fixed;imageAspect=0;image=data:image/png,iVBORw0KGgoAAAANSUhEUgAAAEAAAAAoCAYAAABOzvzpAAAAAXNSR0IArs4c6QAAAF1JREFUaEPt1QERADAMArHi33SFfOagHBm7+Fv8/hOABsQTQCBeAJ8gAgjEE0AgXgArgAAC8QQQiBfACiCAQDwBBOIFsAIIIBBPAIF4AawAAgjEE0AgXgArgECdwANfiQApEtGAKwAAAABJRU5ErkJggg==;" parent="1" vertex="1"><mxGeometry x="384" y="40" width="64" height="40" as="geometry"/></mxCell><mxCell id="256" value="" style="shape=image;verticalLabelPosition=bottom;labelBackgroundColor=#ffffff;verticalAlign=top;aspect=fixed;imageAspect=0;image=data:image/png,iVBORw0KGgoAAAANSUhEUgAAAEAAAAAoCAYAAABOzvzpAAAAAXNSR0IArs4c6QAAAF1JREFUaEPt1QERADAMArHi33SFfOagHBm7+Fv8/hOABsQTQCBeAJ8gAgjEE0AgXgArgAAC8QQQiBfACiCAQDwBBOIFsAIIIBBPAIF4AawAAgjEE0AgXgArgECdwANfiQApEtGAKwAAAABJRU5ErkJggg==;" parent="1" vertex="1"><mxGeometry x="384" y="80" width="64" height="40" as="geometry"/></mxCell><mxCell id="257" value="" style="shape=image;verticalLabelPosition=bottom;labelBackgroundColor=#ffffff;verticalAlign=top;aspect=fixed;imageAspect=0;image=data:image/png,iVBORw0KGgoAAAANSUhEUgAAAEAAAAAoCAYAAABOzvzpAAAAAXNSR0IArs4c6QAAAF1JREFUaEPt1QERADAMArHi33SFfOagHBm7+Fv8/hOABsQTQCBeAJ8gAgjEE0AgXgArgAAC8QQQiBfACiCAQDwBBOIFsAIIIBBPAIF4AawAAgjEE0AgXgArgECdwANfiQApEtGAKwAAAABJRU5ErkJggg==;" parent="1" vertex="1"><mxGeometry x="384" y="120" width="64" height="40" as="geometry"/></mxCell><mxCell id="258" value="" style="shape=image;verticalLabelPosition=bottom;labelBackgroundColor=#ffffff;verticalAlign=top;aspect=fixed;imageAspect=0;image=data:image/png,iVBORw0KGgoAAAANSUhEUgAAAEAAAAAoCAYAAABOzvzpAAAAAXNSR0IArs4c6QAAAF1JREFUaEPt1QERADAMArHi33SFfOagHBm7+Fv8/hOABsQTQCBeAJ8gAgjEE0AgXgArgAAC8QQQiBfACiCAQDwBBOIFsAIIIBBPAIF4AawAAgjEE0AgXgArgECdwANfiQApEtGAKwAAAABJRU5ErkJggg==;" parent="1" vertex="1"><mxGeometry x="384" y="160" width="64" height="40" as="geometry"/></mxCell><mxCell id="259" value="" style="shape=image;verticalLabelPosition=bottom;labelBackgroundColor=#ffffff;verticalAlign=top;aspect=fixed;imageAspect=0;image=data:image/png,iVBORw0KGgoAAAANSUhEUgAAAEAAAAAoCAYAAABOzvzpAAAAAXNSR0IArs4c6QAAAF1JREFUaEPt1QERADAMArHi33SFfOagHBm7+Fv8/hOABsQTQCBeAJ8gAgjEE0AgXgArgAAC8QQQiBfACiCAQDwBBOIFsAIIIBBPAIF4AawAAgjEE0AgXgArgECdwANfiQApEtGAKwAAAABJRU5ErkJggg==;" parent="1" vertex="1"><mxGeometry x="384" y="200" width="64" height="40" as="geometry"/></mxCell><mxCell id="263" value="" style="shape=image;verticalLabelPosition=bottom;labelBackgroundColor=#ffffff;verticalAlign=top;aspect=fixed;imageAspect=0;image=data:image/png,iVBORw0KGgoAAAANSUhEUgAAAEAAAAAoCAYAAABOzvzpAAAAAXNSR0IArs4c6QAAAF1JREFUaEPt1QERADAMArHi33SFfOagHBm7+Fv8/hOABsQTQCBeAJ8gAgjEE0AgXgArgAAC8QQQiBfACiCAQDwBBOIFsAIIIBBPAIF4AawAAgjEE0AgXgArgECdwANfiQApEtGAKwAAAABJRU5ErkJggg==;" parent="1" vertex="1"><mxGeometry x="384" y="240" width="64" height="40" as="geometry"/></mxCell><mxCell id="264" value="" style="shape=image;verticalLabelPosition=bottom;labelBackgroundColor=#ffffff;verticalAlign=top;aspect=fixed;imageAspect=0;image=data:image/png,iVBORw0KGgoAAAANSUhEUgAAAEAAAAAoCAYAAABOzvzpAAAAAXNSR0IArs4c6QAAAF1JREFUaEPt1QERADAMArHi33SFfOagHBm7+Fv8/hOABsQTQCBeAJ8gAgjEE0AgXgArgAAC8QQQiBfACiCAQDwBBOIFsAIIIBBPAIF4AawAAgjEE0AgXgArgECdwANfiQApEtGAKwAAAABJRU5ErkJggg==;" parent="1" vertex="1"><mxGeometry x="448" y="240" width="64" height="40" as="geometry"/></mxCell><mxCell id="265" value="" style="shape=image;verticalLabelPosition=bottom;labelBackgroundColor=#ffffff;verticalAlign=top;aspect=fixed;imageAspect=0;image=data:image/png,iVBORw0KGgoAAAANSUhEUgAAAEAAAAAoCAYAAABOzvzpAAAAAXNSR0IArs4c6QAAAF1JREFUaEPt1QERADAMArHi33SFfOagHBm7+Fv8/hOABsQTQCBeAJ8gAgjEE0AgXgArgAAC8QQQiBfACiCAQDwBBOIFsAIIIBBPAIF4AawAAgjEE0AgXgArgECdwANfiQApEtGAKwAAAABJRU5ErkJggg==;" parent="1" vertex="1"><mxGeometry x="448" y="40" width="64" height="40" as="geometry"/></mxCell><mxCell id="266" value="" style="shape=image;verticalLabelPosition=bottom;labelBackgroundColor=#ffffff;verticalAlign=top;aspect=fixed;imageAspect=0;image=data:image/png,iVBORw0KGgoAAAANSUhEUgAAAEAAAAAoCAYAAABOzvzpAAAAAXNSR0IArs4c6QAAAF1JREFUaEPt1QERADAMArHi33SFfOagHBm7+Fv8/hOABsQTQCBeAJ8gAgjEE0AgXgArgAAC8QQQiBfACiCAQDwBBOIFsAIIIBBPAIF4AawAAgjEE0AgXgArgECdwANfiQApEtGAKwAAAABJRU5ErkJggg==;" parent="1" vertex="1"><mxGeometry x="448" y="80" width="64" height="40" as="geometry"/></mxCell><mxCell id="267" value="" style="shape=image;verticalLabelPosition=bottom;labelBackgroundColor=#ffffff;verticalAlign=top;aspect=fixed;imageAspect=0;image=data:image/png,iVBORw0KGgoAAAANSUhEUgAAAEAAAAAoCAYAAABOzvzpAAAAAXNSR0IArs4c6QAAAF1JREFUaEPt1QERADAMArHi33SFfOagHBm7+Fv8/hOABsQTQCBeAJ8gAgjEE0AgXgArgAAC8QQQiBfACiCAQDwBBOIFsAIIIBBPAIF4AawAAgjEE0AgXgArgECdwANfiQApEtGAKwAAAABJRU5ErkJggg==;" parent="1" vertex="1"><mxGeometry x="448" y="120" width="64" height="40" as="geometry"/></mxCell><mxCell id="268" value="" style="shape=image;verticalLabelPosition=bottom;labelBackgroundColor=#ffffff;verticalAlign=top;aspect=fixed;imageAspect=0;image=data:image/png,iVBORw0KGgoAAAANSUhEUgAAAEAAAAAoCAYAAABOzvzpAAAAAXNSR0IArs4c6QAAAF1JREFUaEPt1QERADAMArHi33SFfOagHBm7+Fv8/hOABsQTQCBeAJ8gAgjEE0AgXgArgAAC8QQQiBfACiCAQDwBBOIFsAIIIBBPAIF4AawAAgjEE0AgXgArgECdwANfiQApEtGAKwAAAABJRU5ErkJggg==;" parent="1" vertex="1"><mxGeometry x="448" y="160" width="64" height="40" as="geometry"/></mxCell><mxCell id="269" value="" style="shape=image;verticalLabelPosition=bottom;labelBackgroundColor=#ffffff;verticalAlign=top;aspect=fixed;imageAspect=0;image=data:image/png,iVBORw0KGgoAAAANSUhEUgAAAEAAAAAoCAYAAABOzvzpAAAAAXNSR0IArs4c6QAAAF1JREFUaEPt1QERADAMArHi33SFfOagHBm7+Fv8/hOABsQTQCBeAJ8gAgjEE0AgXgArgAAC8QQQiBfACiCAQDwBBOIFsAIIIBBPAIF4AawAAgjEE0AgXgArgECdwANfiQApEtGAKwAAAABJRU5ErkJggg==;" parent="1" vertex="1"><mxGeometry x="448" y="200" width="64" height="40" as="geometry"/></mxCell><mxCell id="286" value="" style="shape=image;verticalLabelPosition=bottom;labelBackgroundColor=#ffffff;verticalAlign=top;aspect=fixed;imageAspect=0;image=data:image/png,iVBORw0KGgoAAAANSUhEUgAAAEAAAAAoCAYAAABOzvzpAAAAAXNSR0IArs4c6QAAAMtJREFUaIHt2E0OhCAMBeDWeJE5wSx05WLuf6vOysQQ/Mu8tjK8b2UiIfSJQBAhIiKiXmn2AGrMzNZnVXUd4+DZ+db7tYht7LUr3x21RQibAbVCal/3ajuU0atjpDIUZCCpAXhP7yvgATyhqDug/1ZE8ej1ANZZi8WLBG6Dv/LaCZoJwAsDyB5ANgaQPYBsTW2DK+SO0P0M6D4AHoWRnYn4huBxGky9ELnjL4/CWqi1mafP7juERy2CZaHeF6IiwbfCkbe9RERERHTiC8ybSWC2mtghAAAAAElFTkSuQmCC;" vertex="1" parent="1"><mxGeometry y="360" width="64" height="40" as="geometry"/></mxCell><mxCell id="287" value="" style="shape=image;verticalLabelPosition=bottom;labelBackgroundColor=#ffffff;verticalAlign=top;aspect=fixed;imageAspect=0;image=data:image/png,iVBORw0KGgoAAAANSUhEUgAAAEAAAAAoCAYAAABOzvzpAAAAAXNSR0IArs4c6QAAAoBJREFUaIHtmL9r20AUx79uPDaB0KWrFzVLKOjcDgI5k0EeutUEOgVEXbp4q6H/Qrp5KTYIspp2y2BDJsfUSyIvWRwvWruYgNNdHZJ3Pp1ll5a7c4f7gMCnH773vnrv6d4BFovFYrFY/ieY66fM9VMTcxVNTEK8LHko7u9wx+LJqCDfw1w/vTg9AQBUW0jz7lGJUQGK+ztpUGuKp3IdrLbOzNlkbCaBQb8NSYgMkecAAMLxDHIqqI4I4wIM+u3MOC/Xw/GM/w5qTcynCd6/XqDRGyq3R4sAfypgr0pvMuPu8RFKrIRq6wyR52DvcBf1TrwxSlTxRPUfMteX8xxBrZk5RCLP4W/24vQE4XiGxc09v04R0+gNlYc/oFgAcn7Qb+M6vuTHoN/OhP6zg1LmuchzMoUvHM9wHV9iPk0AAFfJuRbnAQ0RIFJmFZRZhQtBkGPE3uHuyrN3t5/5b52fQq0CiHx8+2XttacvnpsyYwVjAojIKbBNtAoghv7X7590TvXPGKkBwOYU2CZbSQGZX7c/M+PIc1B998PI3MYE2JQC9U6M7vHRynkTtULrUpjyn9Igb2VH3/wyq6Cr05g1aBEgqDW50zQWmU8T/nbJ+U2IS2vVawLlKUCLnHVL3zzERRKw2gwByE0RFWiJALnjI+QmCFimh+jgckPkoW1+eG6h3lAoFuAxPNM8R4mr5BwAEBwsI0N+u2JfQBGlqxlSHgEkwrrr1Czl0egN8e0D4+N6JwagtxnSut8mI7fKshC0E0RQLdDZDBkXQD4nOsdcPxW3wwAU4slIq03Gt8TE+kD1gIgno0L4mD7xZFRgrq/dHqMRAOj9plssFovFYrH8Db8B/Ev7/QPCwGwAAAAASUVORK5CYII=;" vertex="1" parent="1"><mxGeometry x="64" y="360" width="64" height="40" as="geometry"/></mxCell><mxCell id="288" value="" style="shape=image;verticalLabelPosition=bottom;labelBackgroundColor=#ffffff;verticalAlign=top;aspect=fixed;imageAspect=0;image=data:image/png,iVBORw0KGgoAAAANSUhEUgAAAEAAAAAoCAYAAABOzvzpAAAAAXNSR0IArs4c6QAAAoBJREFUaIHtmLGLGkEUxj9zlsnBcU3abYxNCOx4KYTVamEtrjsRUh0s8bjGLkL+hbvOJigItnLpUihYqcTmHJs0no3tNRIw6TfFOuvs7CpBZjZC5lftzOwu73375r03C2g0Go1Go9H8p6T+tQFxENPy+DGdjZXZmVb1Yp53Rh7ps5PAqX0OEdPyBnfXoTm7Dk+VCIkIkD478ZxSjZ/a65Bd76g3akMiAjD6vQYEIWJp5zOhsTtZKNsWiQnQ7zVCY9EhHneyiMw5pRpW8yU+vl+j2h1Ks0uqAPucAoAL4zJ2vlUpwiAG7HoH7XwGp29fBWvlJv2rqDkUaQIQ0/KcUi30pUXDV/NlcM2HudsdYkAMDO6ufREQFgHwI+jCuES1O5RaFaQIwDs/paNgPkcKALZCnGeN0HPMyTYysOsdiNm/3KSY0hFur+4BAI/Lb9JL4guZL2PkSAE5UsCUjkKC8BHAePnmdeRr8/x8+hxcqyiFSpIg7/Tt1X3w5cUIOAaURgAAfPn6ae+9v5+eUW5StCrFyNrDDYH94bsKEwOURoCYA3jcyQKYbO/PkQJa3Pr6x6/g+jxrANHdIwWpAjilWuA0G/Os5stgGzCnAYSe2QdfZo+uEWLOHVKzeTGA3Y1Qv9dAq1I83kZI7PYYcQ0Q73COFEI5IHoY8lto/z1rOcZukCLAJhy9XZ0e4NdwAHCy2wiJS3xA/GGIldCjbISArQi71sUuMY5qd4iHGxKZLzcpADWNUCI/RFinyNglhHgKZLCcoKIRSkwAcS7OGWJaXtxRGECKzsZKbEvsOMznB5YPROhsnHKFbURn4xQxLWV2JfZPUEUN12g0Go1Go9FoDucPI2L6fWIcWUYAAAAASUVORK5CYII=;" vertex="1" parent="1"><mxGeometry x="128" y="360" width="64" height="40" as="geometry"/></mxCell><mxCell id="289" value="" style="shape=image;verticalLabelPosition=bottom;labelBackgroundColor=#ffffff;verticalAlign=top;aspect=fixed;imageAspect=0;image=data:image/png,iVBORw0KGgoAAAANSUhEUgAAAEAAAAAoCAYAAABOzvzpAAAAAXNSR0IArs4c6QAAAotJREFUaIHtmLFrGzEUxj83HptA6NL1FjdLKFhOB4OdyXAestUEOgWOOnTxVkP/hXTzUmwwZDXplsEGT46pl+S8ZHG8eO1iAk7363B9iiTf4YIldah+cKDT+c7vfXpPehLgcDgcDofjfyXzrw1IguVLEbXD6diojVmTHxd56xWR3d/Z6BjLl6LhxRm/rzQRmRTBmgDZ/Z3IrzbErlTHKs1LO0bBogDEoN+CIsQa3WKOt4PJXEoJQG9aWBVg0G9J96pjRDCZS/d+tYHlbIGP71ao90ZabdIuQJpTxJF3stbXOT2GxzxUmpfoFnPYO9wFANTa4cZo2RatArB8KfKrDWmkVQeWswVvU6gHvRGGzMPw4iwWAc8iAHHkHHknqPdG2leFF7o+JDp/F97wa9BvSYK8OvCk9/YOd9Et5tYmvlo7xF14wwW7XVwbWRK1CaBSYGUUWJkLQYgRQIijLfL48IW3TS2FxgQQ+fT+K2+rEfDyzWsbJqRiTABx5L99/2zqb7bGeAoAcgSo/Hr4mdh/dc5Q+fDDiG0iVlJgUwTU2iE6p8eJz9SU0Y2xQojCn6IgaT0PJnNgEv+2wMroCM9W90+mTJPQLoBfbXCn6V5kOVvwUSXHxd+nYWqHqDUFaInzqw1+/Q3iMgnEkSGWw/SdtDTZBu0RoNb7RFIJTCNfYGXJOXk7HG+e4vdXeo2FRgH+hGWU5Chxu7gGAPgHz5GRNKpqVUiRZaIU1hoBJELac3WfoFLvjXB1zqS+WjsEYK4UtnYkRnsFIkkI8RyAoLnAVClsVQC1T3WK5UuRehgCIBNOx8bssnogIs4PNB+IhNNxJhBSKJyOMyxfMmqT1VNhm6e9DofD4XA4HI4N/AYOeATefOyv9gAAAABJRU5ErkJggg==;" vertex="1" parent="1"><mxGeometry x="192" y="360" width="64" height="40" as="geometry"/></mxCell><mxCell id="290" value="" style="shape=image;verticalLabelPosition=bottom;labelBackgroundColor=#ffffff;verticalAlign=top;aspect=fixed;imageAspect=0;image=data:image/png,iVBORw0KGgoAAAANSUhEUgAAAEAAAAAoCAYAAABOzvzpAAAAAXNSR0IArs4c6QAAAkFJREFUaIHtmL9LI0EUx7+elt6B2FybJmcjQiZaBJJUgaSwuxCwEoKRa9JdQPAv8Lo0kkAgrWiXIgErDaaJm8ZG02x7jQh6/V7hvnH2R4bLObsEfB8ImZlldt77zpv3JgEYhmEYhmEYhmEYhvloLMWxyFYig5W1ZYf61mQYy7r/wkosi6wtO8VSXR1ydCKIVNZR+1EKFosAxKDfBAnhd1Ll/FB4+uUWIoseowLonBr0m9hO7Mp+J5OU7epoisuTfQBAodFFuWUF5isRpI2eeTEmADl/a10jLXKgNgAcH18AAB7vbc+cL5ufAQAdJFFodKUI9E0UGl05v13Jo2ZQBCMCiFTWKZbqGPSbAN4c97O+kQiMrX77+toYvY2Rw8R2YjcQQab4ZPyNANIiJ6Pgx/dfc8/vZJLyiKhiju0eamdXZox0iUQAldOLn9rnfx5+a58/PRzJtjUZLtHHiHGISIBb61rmAooEIJgDiHLLQruSD4yfHwoU9m6iMFFitAoUS3WPw77a76E6mspzT2JdCm+OeL57AeDmjnDt3o3xe8Asp/27r1YLVTTAFUcz1yTGBHi8t0OzPD0b2z0AQHEjKJAqBhBeBt0KYPQOABiOACqDYahlEvDuelrk0K7kYVuvO+0vg0QUIhgVYFadlrvvOx5hiQ/w3hIB75FYyIuQa4yju6joooOonV0FnFcZ2z0c7ISL9r8YPU+63wKqOBQR72GhIoCYZVSYMIvyn0BsRqgizOO8SGVhTYbRGMUwDMN8cP4CZvzfbVPQDDsAAAAASUVORK5CYII=;" vertex="1" parent="1"><mxGeometry x="256" y="360" width="64" height="40" as="geometry"/></mxCell><mxCell id="291" value="" style="shape=image;verticalLabelPosition=bottom;labelBackgroundColor=#ffffff;verticalAlign=top;aspect=fixed;imageAspect=0;image=data:image/png,iVBORw0KGgoAAAANSUhEUgAAAEAAAAAoCAYAAABOzvzpAAAAAXNSR0IArs4c6QAAAlVJREFUaIHtmLFLI0EUxr/TlCqIzbVpoo0IO7EJbKyEpLARRbAKCJFr0t3B/Qu5Ls2hsGAb7roUCcQmEW2SEeyizbY2UZDr94q9mZtdd0c55m08nF+1M7uZfe/b9968CWCxWCwWi8VisbwZmOMGzHGDWdsxE5jjBg/nXvBw7mUiQo76BSob+RJyy/PSKX598SHpue0vZ5nZlKkAueX5oFJtqFNBkgg/jhkAYP+E09tE/oYEet0WhBBJYa46Hr+fFjX/CokAutztdVvYzO/IsVcq4OjqDv1mDUAY/mJOjZbdpRvU2wPjts6ZXlA4P+ZDOTfmQ4z5EJVqA7EUABCKoMv76cQ3babEqADMceM5Lvm0901er6zlI/eW1hdT1+x1WwCAentgPPwBgghQEV8eAL7//Jz63MLqx8j46OoOYz6UX37kd0icB4gFKLIyiqwMIBoBr+Hx9qu8pnIeIBbgfyAzAXQpMEtI+wCR/yIN0grkr9t7SjO0kAhQqTak02KsY/+E4/RgS469UgHbh5eRfoEKsgjQOT2d+HIrFBW/yMros+j2uLKWB+haAABvoAgK52dF5gIkdXVq1wiEUaE+K/4foDgeGxdA17ZOJz5GfgcjvyPnRK9werAFn4e/7Tdr6DdrGPkdWQfUGmESkhog2tckKtXGs/tx5+LnglCEJ2P2qZAIkFa9xZd/aVfwSgUAf1MBoDsLGBXgj4GBbvvSRUe9PZDOq1CeBUgW1RUrVRy1FuigPAuQpECawUnCUDr3GjJ/uSrCS84zxwW/vqA3ymKxWCzvlN+TxeVfJ6BSrAAAAABJRU5ErkJggg==;" vertex="1" parent="1"><mxGeometry x="320" y="360" width="64" height="40" as="geometry"/></mxCell><mxCell id="292" value="" style="shape=image;verticalLabelPosition=bottom;labelBackgroundColor=#ffffff;verticalAlign=top;aspect=fixed;imageAspect=0;image=data:image/png,iVBORw0KGgoAAAANSUhEUgAAAEAAAAAoCAYAAABOzvzpAAAAAXNSR0IArs4c6QAAAmxJREFUaIHtmLFr20AUxr80HhtDyNJVi5slFHT2YpA9CezBS6kxdAoYXLJ4q6D/Qrp5KTYYvIZ282CDp9jUi32G0sXxorWLKaTZlSG+y0m2ZCXcqUPuN51O0vHed++9exKg0Wg0Go1Go9FoNC+Qg/9twC6IaXlsTBcTpTamVC4u8s7II3V8uNcxYlre6PKcX9sOPJUiJCZA6vjQK5Wb4lSoY7bTS8YoJCgAYzhogQkhhnoUKlNCugBRTg0HLeSMCr/u5jMAgPp0BRb2ttNDN59B+uwIAFBtUy7Y+/QvNCIi5zm8krUQ8Oj8nI753JyOMadjlMpNBFIAAJA+O0I3n9kb9uulK9NUjjQBiGkFc5xz8eErH5+cGlv32W4HqbYpckYFw0ELANC4upZgqR+pESDCdh4Avv34HPrc67dvds5X29QXSTO3D7qYHMiuAcoEyJICsqQAwB8BT+HvzRc+VnUUKhNAJCoC7m7+JGFCKMpTQIyEMKptik6t6Jv7/onA/vhTlXkc6cdgqdz0ORwsjOulywthfboCpuBCjch2gTw5NQA1BwAARY1Q2GkQJCpCbn//k23WThKpAYyws1ys9mHvENPy4naOT0GqAFHNynrpYub2MXP7fI7tfJYU0KkV4dLH91l3OHP7vHvs1Iqx2+e4SE8B1rTsolRubt0PFj9gUxs2jC7PYTu9jQi30uxkSBdA7PVF2M7HqQ/sG8F2ehA/jVV0glKbC2Ja3j4BgogR0Li65s4z6tMVckaFd4LyrH1A+oJROSqKEyZIGKo6QekpEPWnJ+6zSZKoAc/5sUFMC3QxUWeURqPRaF4w90vV6XjeJ1VWAAAAAElFTkSuQmCC;" vertex="1" parent="1"><mxGeometry x="384" y="360" width="64" height="40" as="geometry"/></mxCell><mxCell id="293" value="" style="shape=image;verticalLabelPosition=bottom;labelBackgroundColor=#ffffff;verticalAlign=top;aspect=fixed;imageAspect=0;image=data:image/png,iVBORw0KGgoAAAANSUhEUgAAAEAAAAAoCAYAAABOzvzpAAAAAXNSR0IArs4c6QAAAk1JREFUaIHtmLFP20AUh78WxoJEWbp6oSyoUpx0QEoyRUqGbESROlVCDWLJ1kiV+AvKxlIlElJWBJsHkJgAkcWYpUtg8dolqtR2Twdy17MdmxTOFhL3SVHOZ1/u3e/ee/diMBgMBoPBYDAYDAbD8+NFVhO9s9aZX5obi2vv+iKzuZOYz2yipblxtdZWu8ZxIti5YmZCZSaA4OR4DyGEulCVwy1bthtdUhVDuwBxi4K7xResurzeX18BYHNwy+nXjwBUOn0aXS8wTvGcWK95KFoFEIu/8s7J2yVEG2Bn5wiA0dAPjFlcW2CfFSqdvhRBfMOdIGJcr1mmpVmEl7p+yM4VwzEu2d7Yle3lVStyf3FtIXBd6fTlp2DVOTne02VmBG0ChLnyzuXufzv6HPvcq7dvIn0iNMR4ANd3aB2cabYyxSSohsD2xu7Unb+PnzdfgNdAeqdBah6gkuQBf25+ZGFCLKmHQN4uSW+Io9H16DXLgb7DLZvKh8u0zJNoD4FqrR1YcDgxjoa+DIfNwS0M/p0ap3Y0TJZXLfAj3dpIJQfEnQZhkjzk1/ffus2aSiY5QBCuAQRqtp91jC60CpBk7Gjo4/oOru/IPrHzebtEr1nG96aPL1j1xArzMWgPgaSipVprR+6Hkx9McsME13coWHVRQj/tUhgI1PoqYudnyQ/h/wiiIkyjFNYmwMSocZwAkOwdAK2DM7n4MK7v8Ol91Fsei/bqKilWVXHUXPC/PEkPEMzykuO+Z7MkUwMe8qbHzhXxri/SM8pgMBgMz5i/UMniLPH4SjEAAAAASUVORK5CYII=;" vertex="1" parent="1"><mxGeometry x="448" y="360" width="64" height="40" as="geometry"/></mxCell><mxCell id="294" value="" style="shape=image;verticalLabelPosition=bottom;labelBackgroundColor=#ffffff;verticalAlign=top;aspect=fixed;imageAspect=0;image=data:image/png,iVBORw0KGgoAAAANSUhEUgAAAEAAAAAoCAYAAABOzvzpAAAAAXNSR0IArs4c6QAAAj1JREFUaEPtmLEvBEEUxud6JKLRXuM0GktDUEkodEQrkRCNjn9BQqcREolKInQKkquQaDiNBs22Gg168m3yXd6NWUbcvjV7N83ezc1l9/u9b957syXT4qPU4vqNKoBocOzDB3jt7krtudRuBPHD5ZlE/018msphanrVnJ9tGy0IKgBs8be1y1QAQ9G40YSQGwAIxQAM+3MbgOI2UHdAT3852eOubUD7wxlaeSBXACuzW2bnZM3wWhgALHfM5DIJwgE+I1gHQCySGG0sxbIMYs4F4uUhTuZxZbnMuhw2fQsQACJIED4Rd63RcEFmACgIIv4ygnSAr+D9kb4vSxevnxrmggRgt7x78xOJqKWji7o4iO8a6HSymtutGfwH64MDAEX2oYdiWPtR7goNQIYVMAhAzksAHZXe5Kf3x+fkGrwD0gCw7+fV5QKIr24umLgWh7sFXADsHOByBdZAPEYhADAXMAmWI78uEOIJLMgkyER4vByZ1/s3g9JGCL4lkhUjSACIPMRzEIKveKxDfgC44ADQ9jaA34jHWvQISIhBAkAim1w/aGh6+EU2PxAoh4TGchgsAAqTIGwXVA9H61PdlY36qzG5LjgArk6QrbE8AvPIK8XaR+QgT4N2lF0vQ346Icr3CUE6wG6EpAO+iyrbZq0eAPdp+vsAlwMwJ0+IaVGVh6isI8/nVAEgj8NawnzLrgoAPsx/E6+yBXwjkde6zB2QlzDf+7YB+JIq6rq2A4oaWV9dbQf4kirqupZ3wCcvMWc4kEox3AAAAABJRU5ErkJggg==;" vertex="1" parent="1"><mxGeometry y="280" width="64" height="40" as="geometry"/></mxCell><mxCell id="295" value="" style="shape=image;verticalLabelPosition=bottom;labelBackgroundColor=#ffffff;verticalAlign=top;aspect=fixed;imageAspect=0;image=data:image/png,iVBORw0KGgoAAAANSUhEUgAAAEAAAAAoCAYAAABOzvzpAAAAAXNSR0IArs4c6QAAAm5JREFUaEPtmL8vBEEUx+d6JKLRXuM0GktDUEkodEQrkRCNjn9BQqcREolKInQKkquQaDiN5miu1WjQk+8m38szmb2bjZnb27HTjB9vf3w/8973zU5J/fNRykJ/NDr1bfPc2tOd9/fz/gBdKMSPlxfUwHC5LYPrq33lG0JHAVD8Q+OyrXgEzM1vKt8QMgFA9d2QBZkBgHisbtLA6mMEmwEog8fabSKAsWg67BIgAAjFAAz959x7gGx3cHOaIASnBaDfy8pFLYK8eQBemHX8Xm/EgjHQAjHoAaYyYPrTA3gdTdOlL3gFwAWgaEAwAdhY3FMHF1uKsw5AXs97utofeAUgnVyHYdMCZQZwX+C6M3gHYGp1XFGWgl6qKBkAwky/YIxrY/QOwMKHUofkwgOgyvajJy0BV/WP53rLAF2UhEHnh9kdTwwl6l+9f23+z6Vo+UDvAKTwo+UZtXZ280swAPSN9MZ/66kMxvPXy1s8Lx3WFK/JHQAKP1+P1Mfzp8JqUgx3fZwlBNKB+OruSvzr7PaJt89iLxkA8Xh5vLgOAIJkFpiyAjEUHwQAiJBZIGugHLU+GAFEjFyVADOAq4cskBDSuD7KA+WTKwCmFtjK7VsBgUHCD3IHIKkNEgSdn24v45kx0hCDAIAtsOk8sHo62dTfX9lpngtIKMEAgCj5IcT9vhSrfyi53PrqmemlDSbVNPcG8lg863PBjgKgOaL3cz9gSm15csSDk9yXgMwKm+MtxLQDlaadJsV2PAPSvLQNqDT3M8V2NYC/irO5vgBgQynkmCIDQl5dG21FBthQCjmmyICQV9dGW5EBNpRCjvkBMjpwOE8m8TkAAAAASUVORK5CYII=;" vertex="1" parent="1"><mxGeometry x="64" y="280" width="64" height="40" as="geometry"/></mxCell><mxCell id="296" value="" style="shape=image;verticalLabelPosition=bottom;labelBackgroundColor=#ffffff;verticalAlign=top;aspect=fixed;imageAspect=0;image=data:image/png,iVBORw0KGgoAAAANSUhEUgAAAEAAAAAoCAYAAABOzvzpAAAAAXNSR0IArs4c6QAAAkNJREFUaEPtmL8vBEEUx+d6JKLRbuM0GktDUEkodEQrkRCNjn9BQqcREolKInQKkquQaDiN5miu1WjQk+8kb/Nu7K7ZszObmd3X7P2Yu5nvZ7/z3putiZJHreT6RQXAtgPC0alvnTmbT3dWbo6VSUgwxI8HC/LtwHCQyuH6al/YgGANgCoeApNibn5TfmUDQiEAHtqX4rF5mwhgLJwWgOA9AAhFAIb6ugLgswOQAGHvuG1A9vc6B3AAG4t74uBiS9DVGwC83qOcZSmBlB0pCar/pdNH6I4xUgWwYLWU/ReAqdJoFEBcradGKKkZem+1ZZOEKwIlk8JEZTAKQNeGWcbl3RsYAQBBuj1/FvEYm3d7bAwAF5YG43hi6BeD1fvXjs/yFs3/3BqAo+UZsXZ2E9V+lDuI7xvpjTXB0mFT0G+8AsDVcgA99UH51dfLm7wCQGN3Rcxun+Rue6sOIPtzB+DuU/8f5wISj4U6DQDiIRB7GgAQ2AYUBEXdA7jzFM4CgPjz9VDq+Hj+7IBA4oIw/aEIxJvI/Ma3ANmeA8Ckanb/qwSSe5xLggBACQwiAQIuyBqoEMgHzgLg+5jXe176IJAHuYY+cxIAFq/bCTZOJyP9/fWd6MkQh+KcA1SrJ50E6cDDx6tPi/Pu/dW1WesEMTGdBPkJLykvmDr+FgaA9wFpluZuwWIBy4stQOR1xACCLrCslaUQB3SzSJOPwYw3Qt0ILuo3VpJgUeJ05q0A6FDyeUzlAJ/vro62ygE6lHweU3oH/ABJ3WA47EXHEgAAAABJRU5ErkJggg==;" vertex="1" parent="1"><mxGeometry x="128" y="280" width="64" height="40" as="geometry"/></mxCell><mxCell id="297" value="" style="shape=image;verticalLabelPosition=bottom;labelBackgroundColor=#ffffff;verticalAlign=top;aspect=fixed;imageAspect=0;image=data:image/png,iVBORw0KGgoAAAANSUhEUgAAAEAAAAAoCAYAAABOzvzpAAAAAXNSR0IArs4c6QAAAF1JREFUaEPt1QERADAMArHi33SFfOagHBm7+Fv8/hOABsQTQCBeAJ8gAgjEE0AgXgArgAAC8QQQiBfACiCAQDwBBOIFsAIIIBBPAIF4AawAAgjEE0AgXgArgECdwANfiQApEtGAKwAAAABJRU5ErkJggg==;" vertex="1" parent="1"><mxGeometry x="192" y="280" width="64" height="40" as="geometry"/></mxCell><mxCell id="298" value="" style="shape=image;verticalLabelPosition=bottom;labelBackgroundColor=#ffffff;verticalAlign=top;aspect=fixed;imageAspect=0;image=data:image/png,iVBORw0KGgoAAAANSUhEUgAAAEAAAAAoCAYAAABOzvzpAAAAAXNSR0IArs4c6QAAAF1JREFUaEPt1QERADAMArHi33SFfOagHBm7+Fv8/hOABsQTQCBeAJ8gAgjEE0AgXgArgAAC8QQQiBfACiCAQDwBBOIFsAIIIBBPAIF4AawAAgjEE0AgXgArgECdwANfiQApEtGAKwAAAABJRU5ErkJggg==;" vertex="1" parent="1"><mxGeometry x="256" y="280" width="64" height="40" as="geometry"/></mxCell><mxCell id="299" value="" style="shape=image;verticalLabelPosition=bottom;labelBackgroundColor=#ffffff;verticalAlign=top;aspect=fixed;imageAspect=0;image=data:image/png,iVBORw0KGgoAAAANSUhEUgAAAEAAAAAoCAYAAABOzvzpAAAAAXNSR0IArs4c6QAAAF1JREFUaEPt1QERADAMArHi33SFfOagHBm7+Fv8/hOABsQTQCBeAJ8gAgjEE0AgXgArgAAC8QQQiBfACiCAQDwBBOIFsAIIIBBPAIF4AawAAgjEE0AgXgArgECdwANfiQApEtGAKwAAAABJRU5ErkJggg==;" vertex="1" parent="1"><mxGeometry x="320" y="280" width="64" height="40" as="geometry"/></mxCell><mxCell id="300" value="" style="shape=image;verticalLabelPosition=bottom;labelBackgroundColor=#ffffff;verticalAlign=top;aspect=fixed;imageAspect=0;image=data:image/png,iVBORw0KGgoAAAANSUhEUgAAAEAAAAAoCAYAAABOzvzpAAAAAXNSR0IArs4c6QAAAF1JREFUaEPt1QERADAMArHi33SFfOagHBm7+Fv8/hOABsQTQCBeAJ8gAgjEE0AgXgArgAAC8QQQiBfACiCAQDwBBOIFsAIIIBBPAIF4AawAAgjEE0AgXgArgECdwANfiQApEtGAKwAAAABJRU5ErkJggg==;" vertex="1" parent="1"><mxGeometry x="384" y="280" width="64" height="40" as="geometry"/></mxCell><mxCell id="301" value="" style="shape=image;verticalLabelPosition=bottom;labelBackgroundColor=#ffffff;verticalAlign=top;aspect=fixed;imageAspect=0;image=data:image/png,iVBORw0KGgoAAAANSUhEUgAAAEAAAAAoCAYAAABOzvzpAAAAAXNSR0IArs4c6QAAAF1JREFUaEPt1QERADAMArHi33SFfOagHBm7+Fv8/hOABsQTQCBeAJ8gAgjEE0AgXgArgAAC8QQQiBfACiCAQDwBBOIFsAIIIBBPAIF4AawAAgjEE0AgXgArgECdwANfiQApEtGAKwAAAABJRU5ErkJggg==;" vertex="1" parent="1"><mxGeometry x="448" y="280" width="64" height="40" as="geometry"/></mxCell><mxCell id="302" value="" style="shape=image;verticalLabelPosition=bottom;labelBackgroundColor=#ffffff;verticalAlign=top;aspect=fixed;imageAspect=0;image=data:image/png,iVBORw0KGgoAAAANSUhEUgAAAEAAAAAoCAYAAABOzvzpAAAAAXNSR0IArs4c6QAAAlBJREFUaEPtmL8vBEEUx+d6JKLRbuM0GktDUEkodEQrkRCNjn9BQqcREolKInQKkquQaFiNBs22Gg168p3krZc1uzdk3lzmbqdZZ35+P/PmvTdTUx1eah2uX1UAfFpAPDzxZTNf8nDjbWO8TQTxo9Gc1t83GJVyuLzYVb4geAFA4u/SczUzu67FQ2RRQRtfEFoCAOLuk+tCACPxpK7zYQUtBUBCAcP0dwXAgzNsiQWQDzAdA1hC2/sADmBtfkftnW0o+rYFAFO8tw2B5BnzUULKHzg/AkUh778AeNiUgCAOgO8kQaBdNiVEb0+pTpTwRd6AIukTxAHYpL42baQSI+cAIMY257cRTm0kzB9jiwDgwmxgHI4N/GKxfPviJRsUAZAXfbA4lQlcObnK0mCEPIjvGeo2GsPCfiKeDjsHAPGN7SUtKE1SBcF5AFwtB9BV79dVn8+v+hs0gOnNo0ynyQKw+3QHMFkBxPu4EIlYABZ+uhqr98cPhbPMAaAOVkEFdfw3/R9WBIhSzo/mcQ6AogB3bCYIpkMfxT8PJWRBQQLgoZBAkFe3DX3ohz7BAjBZgq14tENkCNIJ5kUiKvDjwEMeOTrqA7/BS9sAKNr5xvF4VtVb38pehXj7oI8AHQPTTRCXnXzJX46k8n8+r0gU4BOYnsPLXoTRV/oK7B0AJiQrwBW3yKw5LPQpa/sXh1rW1osFUCKEhKfsTAOAbdugANBimzk0folq1jYYAK4WKjWO+BGQWrircSsArkiGOk5lAaHunKt1VxbgimSo43S8BXwDG6NdOFhsNPEAAAAASUVORK5CYII=;" vertex="1" parent="1"><mxGeometry y="320" width="64" height="40" as="geometry"/></mxCell><mxCell id="303" value="" style="shape=image;verticalLabelPosition=bottom;labelBackgroundColor=#ffffff;verticalAlign=top;aspect=fixed;imageAspect=0;image=data:image/png,iVBORw0KGgoAAAANSUhEUgAAAEAAAAAoCAYAAABOzvzpAAAAAXNSR0IArs4c6QAAAlFJREFUaEPtmLEvBEEUxvd6JKLRXuM0GkdDUEkodEQrkRCNjn9BQqcREolKInQKkquQaFiNBs22Gg168o18m2fM3u3Kzpwdu82xM7Oz3+99897MVoI2XPXBsY+004Z3V5W0fX/Tz+rDTS8E8cPVGdXU018Nzs+2E997anpVtduE4BSASfxteJkIYKg+rtq8B0ChgGH6uwRgMQ+0dQnA3ljjpmUAJ3ifAySAldmtYOdkLeCvFwBY7riG9SSYpmyZqkSeOcHaEoBYWJhRlmJZBlkKdRAvD5EqkXKs/qy8IFgHgAjy5dNE3ATjJjpVt5kT8iyN1gFQULMNTxIYEzg+pxAOSBvx/ZG+H10Xr58Sh+clHhNYdQDXOi28Nz+hRC0dXcTiIL5roNModm43DDAG/fMULSezBgCT6IceimHdR6nzFgDENzYXYtiT6wdxNGUEJICOWq9qen98Vr+FdgABQDgv6QBEn3t/kwsgHgCjMCrmEqD9j5fr36Kp5wBC0ZMA3VNYAMwBJgDV+tcmp9UF8QRWyCQoIbzevwUobawErcSznRWjsAAIgbW+WX03QcE4jPEGQNrIsx/2CEiIhQaguwD/y80PBMqLeYP3vAGQFP3G4Wjc1F3biD+Lyf5eOEB+DaY4HH31i0dh3rf5ZdjqVlgKM30MaXVClN8AvHNAs6gCljw42RKPADl1ACaUJ8QkYfIQZVO8cwCuopql1Dp3AF7OdlT/JIAsL+WyrzMHuBSVZa4SQBZaPvYtHeBjVLNoKh2QhZaPfUsH+BjVLJr+vQM+AeynZzhTkFQlAAAAAElFTkSuQmCC;" vertex="1" parent="1"><mxGeometry x="64" y="320" width="64" height="40" as="geometry"/></mxCell><mxCell id="304" value="" style="shape=image;verticalLabelPosition=bottom;labelBackgroundColor=#ffffff;verticalAlign=top;aspect=fixed;imageAspect=0;image=data:image/png,iVBORw0KGgoAAAANSUhEUgAAAEAAAAAoCAYAAABOzvzpAAAAAXNSR0IArs4c6QAAAkpJREFUaEPtmLEvBEEUxud6JKLRXuM0GktDUEkodEQrkRCNjn9BQqcREolKInQKkquQaDiNBs21Gg168m3yNs+Y3ezEvmd3b6fZu725nff95pt5b6dmOrzVtPUHwxNfacZsPdyoxKYyCAmG+NH6XPi1b7CeyOHyYtdoQFADYIuHwLg2M7se/qQB4V8A3LXPzX3rOhbASDBpAKH0ACAUDTDszxWAMjsAGyDs7VoGZP9S7wEcwNr8jtk72zB0LQ0Anu+RznxSIO2OtAnaz0pTR6TtI5IFELCdyv4KQCo1igJw5XoqhOKKobendlgk4YqGlElNIjOIAkhrQ59+WdcGIgAgKG3N7yMefbMuj8UAcGFJMA7HBn4xWL59+XEva9H84WoADhanzMrJVZT7ke4gvmeo22mChf2Wof+UCgBXywF0NfrDnz6fX8MrADS3l8z05lHmtldzALc+dwBmn+p/lwtIPAItJAASfroaRLMJAGhYBtQIir0GMPPUCgcA4sm6BOD98cNgYyMIJK4eJB+KQLzEzi+6BFwAMCBB8El7WB4AV6hNkADQ+uUu8BGPvsgQ2A8KBcBVBNm5nqc+COSNgNG9QgKwZzqpEGoej0fdextb0ckQf0bhHOAC4DoNphce3t8+Lc669rdjU6sEOYCkE2EKUOr1NzcA4mzNzw0QLF6HS7EEIIZckCQKAHjRJCkeMaktgbSiJI+/XGlYDQANLj2jvrWGCgDfoDT7VwA0aedxrMoBeZwVzZgqB2jSzuNYlQPyOCuaMXW8A74BWIBxOEneLoYAAAAASUVORK5CYII=;" vertex="1" parent="1"><mxGeometry x="128" y="320" width="64" height="40" as="geometry"/></mxCell><mxCell id="305" value="" style="shape=image;verticalLabelPosition=bottom;labelBackgroundColor=#ffffff;verticalAlign=top;aspect=fixed;imageAspect=0;image=data:image/png,iVBORw0KGgoAAAANSUhEUgAAAEAAAAAoCAYAAABOzvzpAAAAAXNSR0IArs4c6QAAAF1JREFUaEPt1QERADAMArHi33SFfOagHBm7+Fv8/hOABsQTQCBeAJ8gAgjEE0AgXgArgAAC8QQQiBfACiCAQDwBBOIFsAIIIBBPAIF4AawAAgjEE0AgXgArgECdwANfiQApEtGAKwAAAABJRU5ErkJggg==;" vertex="1" parent="1"><mxGeometry x="192" y="320" width="64" height="40" as="geometry"/></mxCell><mxCell id="306" value="" style="shape=image;verticalLabelPosition=bottom;labelBackgroundColor=#ffffff;verticalAlign=top;aspect=fixed;imageAspect=0;image=data:image/png,iVBORw0KGgoAAAANSUhEUgAAAEAAAAAoCAYAAABOzvzpAAAAAXNSR0IArs4c6QAAAF1JREFUaEPt1QERADAMArHi33SFfOagHBm7+Fv8/hOABsQTQCBeAJ8gAgjEE0AgXgArgAAC8QQQiBfACiCAQDwBBOIFsAIIIBBPAIF4AawAAgjEE0AgXgArgECdwANfiQApEtGAKwAAAABJRU5ErkJggg==;" vertex="1" parent="1"><mxGeometry x="256" y="320" width="64" height="40" as="geometry"/></mxCell><mxCell id="307" value="" style="shape=image;verticalLabelPosition=bottom;labelBackgroundColor=#ffffff;verticalAlign=top;aspect=fixed;imageAspect=0;image=data:image/png,iVBORw0KGgoAAAANSUhEUgAAAEAAAAAoCAYAAABOzvzpAAAAAXNSR0IArs4c6QAAAF1JREFUaEPt1QERADAMArHi33SFfOagHBm7+Fv8/hOABsQTQCBeAJ8gAgjEE0AgXgArgAAC8QQQiBfACiCAQDwBBOIFsAIIIBBPAIF4AawAAgjEE0AgXgArgECdwANfiQApEtGAKwAAAABJRU5ErkJggg==;" vertex="1" parent="1"><mxGeometry x="320" y="320" width="64" height="40" as="geometry"/></mxCell><mxCell id="308" value="" style="shape=image;verticalLabelPosition=bottom;labelBackgroundColor=#ffffff;verticalAlign=top;aspect=fixed;imageAspect=0;image=data:image/png,iVBORw0KGgoAAAANSUhEUgAAAEAAAAAoCAYAAABOzvzpAAAAAXNSR0IArs4c6QAAAF1JREFUaEPt1QERADAMArHi33SFfOagHBm7+Fv8/hOABsQTQCBeAJ8gAgjEE0AgXgArgAAC8QQQiBfACiCAQDwBBOIFsAIIIBBPAIF4AawAAgjEE0AgXgArgECdwANfiQApEtGAKwAAAABJRU5ErkJggg==;" vertex="1" parent="1"><mxGeometry x="384" y="320" width="64" height="40" as="geometry"/></mxCell><mxCell id="309" value="" style="shape=image;verticalLabelPosition=bottom;labelBackgroundColor=#ffffff;verticalAlign=top;aspect=fixed;imageAspect=0;image=data:image/png,iVBORw0KGgoAAAANSUhEUgAAAEAAAAAoCAYAAABOzvzpAAAAAXNSR0IArs4c6QAAAF1JREFUaEPt1QERADAMArHi33SFfOagHBm7+Fv8/hOABsQTQCBeAJ8gAgjEE0AgXgArgAAC8QQQiBfACiCAQDwBBOIFsAIIIBBPAIF4AawAAgjEE0AgXgArgECdwANfiQApEtGAKwAAAABJRU5ErkJggg==;" vertex="1" parent="1"><mxGeometry x="448" y="320" width="64" height="40" as="geometry"/></mxCell></root></mxGraphModel></diagram></mxfile>